<svg xmlns="http://www.w3.org/2000/svg" width="23.597" height="19.165" viewBox="0 0 23.597 19.165">
  <path id="Icon_awesome-twitter" data-name="Icon awesome-twitter" d="M21.172,8.157c.015.21.015.419.015.629a13.666,13.666,0,0,1-13.76,13.76A13.667,13.667,0,0,1,0,20.375a10.005,10.005,0,0,0,1.168.06,9.686,9.686,0,0,0,6-2.066A4.845,4.845,0,0,1,2.65,15.015a6.1,6.1,0,0,0,.913.075,5.115,5.115,0,0,0,1.273-.165A4.837,4.837,0,0,1,.958,10.178v-.06a4.871,4.871,0,0,0,2.186.614,4.843,4.843,0,0,1-1.5-6.468,13.747,13.747,0,0,0,9.972,5.061,5.46,5.46,0,0,1-.12-1.108,4.841,4.841,0,0,1,8.37-3.309A9.522,9.522,0,0,0,22.939,3.74a4.823,4.823,0,0,1-2.126,2.665A9.7,9.7,0,0,0,23.6,5.657a10.4,10.4,0,0,1-2.426,2.5Z" transform="translate(0 -3.381)" fill="#fff"/>
</svg>
