<svg xmlns="http://www.w3.org/2000/svg" width="25.549" height="19.165" viewBox="0 0 25.549 19.165">
  <path id="Icon_ionic-logo-youtube" data-name="Icon ionic-logo-youtube" d="M25.383,8.732A3.879,3.879,0,0,0,21.689,4.68c-2.765-.13-5.585-.18-8.464-.18h-.9c-2.875,0-5.7.05-8.464.18A3.888,3.888,0,0,0,.175,8.742C.05,10.519-.005,12.3,0,14.072s.05,3.553.17,5.335a3.893,3.893,0,0,0,3.688,4.067c2.9.135,5.884.195,8.913.19s6-.05,8.913-.19a3.893,3.893,0,0,0,3.693-4.067c.12-1.782.175-3.558.17-5.34S25.5,10.514,25.383,8.732ZM10.331,18.968V9.161l7.237,4.9Z" transform="translate(0 -4.5)" fill="#fff"/>
</svg>
