<svg xmlns="http://www.w3.org/2000/svg" width="820" height="366.287" viewBox="0 0 820 366.287">
  <path id="Path_24" data-name="Path 24" d="M 184.516,366.127 L 509.7,366.127 L 342.677,87.17 L 342.225,87.924 A 184.759,184.759 0.0 0,0 184.516,0.0 C 82.609,0.0 0.0,81.948 0.0,183.093 C 0.0,281.3 77.975,361.436 175.861,365.934 L 175.73,366.127 L 184.516,366.127 M 477.771,278.043 A 184.806,184.806 0.0 0,0 635.5,365.93600000000004 C 737.391,365.93600000000004 820.0,283.991 820.0,182.836 C 820.0,84.643 742.023,4.506 644.1339999999999,0.010000000000000009 L 644.286,-0.16 L 310.294,-0.16 L 477.324,278.767 L 477.771,278.043" transform="translate(0.001 0.16)"></path>
</svg>