<svg width="275" height="614" viewBox="0 0 275 614" fill="none" xmlns="http://www.w3.org/2000/svg">
  <g clip-path="url(#clip0_87_289)">
  <path d="M208.302 256.188L208.843 256.522L0.470703 381.306L0.470703 131.793L0.597703 131.907C3.9567 58.7794 63.8227 0.527466 137.178 0.527466C212.745 0.527466 273.961 62.2404 273.961 138.356C274.009 161.973 267.997 185.207 256.502 205.837C245.006 226.467 228.411 243.804 208.302 256.188V256.188ZM274.102 475.263V481.826L273.957 481.726C270.6 554.855 210.731 613.106 137.37 613.106C61.8087 613.106 0.589703 551.393 0.589703 475.264C0.543886 451.647 6.55882 428.414 18.0591 407.786C29.5594 387.158 46.1603 369.826 66.2737 357.448L65.7107 357.111L274.105 232.332L274.102 475.263Z" fill="black"/>
  </g>
  <defs>
  <clipPath id="clip0_87_289">
  <rect width="612.58" height="273.634" fill="white" transform="translate(0.470703 613.107) rotate(-90)"/>
  </clipPath>
  </defs>
</svg>

