<svg xmlns="http://www.w3.org/2000/svg" width="34.181" height="52.307" viewBox="0 0 34.181 52.307">
  <path id="Path_16" data-name="Path 16" d="M16330.35,9884.179a1.4,1.4,0,0,1-.975-.4,1.441,1.441,0,0,1-.012-1.988l13.295-13.314h-46.283a1.4,1.4,0,0,1,0-2.8h46.3l-13.293-13.318a1.424,1.424,0,0,1,.008-1.978,1.354,1.354,0,0,1,.957-.391,1.308,1.308,0,0,1,.969.422l15.592,15.7a1.417,1.417,0,0,1,.4.981,1.229,1.229,0,0,1-.105.522,1.662,1.662,0,0,1-.3.47l-15.562,15.67A1.368,1.368,0,0,1,16330.35,9884.179Z" transform="translate(9884.179 -16294.998) rotate(90)" fill="#06a6b9"/>
</svg>
