<svg xmlns="http://www.w3.org/2000/svg" width="16.249" height="13.54" viewBox="0 0 16.249 13.54">
  <g id="Icon_ionic-ios-menu" data-name="Icon ionic-ios-menu" transform="translate(-4.5 -10.125)">
    <path id="Path_113" data-name="Path 113" d="M20.072,12.375H5.177c-.372,0-.677-.506-.677-1.125h0c0-.619.3-1.125.677-1.125H20.072c.372,0,.677.506.677,1.125h0C20.749,11.869,20.444,12.375,20.072,12.375Z" fill="#161719"/>
    <path id="Path_114" data-name="Path 114" d="M20.072,19.125H5.177C4.8,19.125,4.5,18.619,4.5,18h0c0-.619.3-1.125.677-1.125H20.072c.372,0,.677.506.677,1.125h0C20.749,18.619,20.444,19.125,20.072,19.125Z" transform="translate(0 -1.105)" fill="#161719"/>
    <path id="Path_115" data-name="Path 115" d="M20.072,25.875H5.177c-.372,0-.677-.506-.677-1.125h0c0-.619.3-1.125.677-1.125H20.072c.372,0,.677.506.677,1.125h0C20.749,25.369,20.444,25.875,20.072,25.875Z" transform="translate(0 -2.21)" fill="#161719"/>
  </g>
</svg>
