<svg xmlns="http://www.w3.org/2000/svg" width="13.081" height="13.081" viewBox="0 0 13.081 13.081">
  <g id="Icon_ionic-ios-menu" data-name="Icon ionic-ios-menu" transform="translate(-6.084 -10.999)">
    <path id="Path_114" data-name="Path 114" d="M20.072,19.125H5.177C4.8,19.125,4.5,18.619,4.5,18h0c0-.619.3-1.125.677-1.125H20.072c.372,0,.677.506.677,1.125h0C20.749,18.619,20.444,19.125,20.072,19.125Z" transform="translate(16.425 -4.116) rotate(45)" fill="#fff"/>
    <path id="Path_115" data-name="Path 115" d="M20.072,25.875H5.177c-.372,0-.677-.506-.677-1.125h0c0-.619.3-1.125.677-1.125H20.072c.372,0,.677.506.677,1.125h0C20.749,25.369,20.444,25.875,20.072,25.875Z" transform="translate(-13.803 8.966) rotate(-45)" fill="#fff"/>
  </g>
</svg>
