<svg xmlns="http://www.w3.org/2000/svg" width="19.166" height="19.166" viewBox="0 0 19.166 19.166">
  <path id="Icon_awesome-linkedin-in" data-name="Icon awesome-linkedin-in" d="M4.29,19.166H.317V6.37H4.29ZM2.3,4.625A2.312,2.312,0,1,1,4.6,2.3,2.321,2.321,0,0,1,2.3,4.625ZM19.162,19.166H15.2V12.937c0-1.485-.03-3.388-2.066-3.388-2.066,0-2.382,1.613-2.382,3.281v6.336H6.779V6.37H10.59V8.116h.056a4.175,4.175,0,0,1,3.76-2.066c4.021,0,4.761,2.648,4.761,6.088v7.029Z" transform="translate(0 -0.001)" fill="#fff"/>
</svg>
