<svg xmlns="http://www.w3.org/2000/svg" xmlns:xlink="http://www.w3.org/1999/xlink" width="152" height="73.5" viewBox="0 0 152 73.5">
  <defs>
    <filter id="Path_17" x="0" y="0" width="152" height="73.5" filterUnits="userSpaceOnUse">
      <feOffset dy="2" input="SourceAlpha"/>
      <feGaussianBlur stdDeviation="2" result="blur"/>
      <feFlood flood-opacity="0.169"/>
      <feComposite operator="in" in2="blur"/>
      <feComposite in="SourceGraphic"/>
    </filter>
  </defs>
  <g id="pin" transform="translate(17708 4932.5)">
    <g transform="matrix(1, 0, 0, 1, -17708, -4932.5)" filter="url(#Path_17)">
      <path id="Path_17-2" data-name="Path 17" d="M66.833,80H0V24.5H140V80H74.166L70.5,86Z" transform="translate(6 -20.5)" fill="#06a6b9"/>
    </g>
    <g id="logo" transform="translate(-18348.266 -4666.231)">
      <path id="path608" d="M-40.909-88.888l-2.283.007L-50.2-101.269l.024,12.388H-52.3v-24.753h2.123l-.024,12.365,6.332-12.369,2.256.01-6.279,12.338Z" transform="translate(795.47 -134.732)" fill="#fff"/>
      <path id="path612" d="M-40.909-88.888l-2.283.007L-50.2-101.269l.024,12.388H-52.3v-24.753h2.123l-.024,12.365,6.332-12.369,2.256.01-6.279,12.338Z" transform="translate(718.104 -134.732)" fill="#fff"/>
      <path id="path616" d="M-49.912-89.51h-2.133v-22.909L-56.138-89.51H-57.72l-4.093-22.909V-89.51h-2V-114.38l3.723-.053,2.607,14.683q.138.826.587,4.92.309-3.406.586-4.988l2.611-14.615,3.783.053Z" transform="translate(758.546 -134.022)" fill="#fff"/>
      <path id="path620" d="M-30.265-56.089l-2.29-13.441-2.49,13.441Zm3.784,9.253h-2.167l-1.273-7.327h-5.4l-1.273,7.327h-2.1l4.472-24.87h3.164Z" transform="translate(751.282 -176.696)" fill="#fff"/>
      <path id="path624" d="M-28.54-23.1a5.292,5.292,0,0,0-.928-3.56,4.308,4.308,0,0,0-3.269-1.015h-1.617v9.116q.894.069,1.239.068a4.777,4.777,0,0,0,3.509-1.083A4.9,4.9,0,0,0-28.54-23.1m2.58,18.438h-2.168L-31.773-16.7c-.276.023-.7.034-1.273.034s-1.009-.011-1.307-.034v12.04h-2.133v-24.87h2.752q3.955,0,5.676,1.376t1.72,4.919q0,4.817-3.405,6.123Z" transform="translate(765.295 -218.869)" fill="#fff"/>
      <path id="path628" d="M0-19.337H0a5.291,5.291,0,0,1,5.246-5.384A5.292,5.292,0,0,1,7.9-24a5.21,5.21,0,0,1,2.655,4.543,5.329,5.329,0,0,1-2.725,4.628C5.207-13.308.009-10.3.009-10.3S0-18.067,0-19.337" transform="translate(679.275 -223.785)" fill="#fff"/>
      <path id="path632" d="M-37.677,0c-2.454,1.44-4.905,2.908-7.8,4.605a5.21,5.21,0,0,0-.034,9.106,5.21,5.21,0,0,0,7.813-4.677c-.016-3.354.086-6.255.018-9.034" transform="translate(727.395 -238.18)" fill="#fff"/>
      <path id="path636" d="M-37.9-32.453h0a5.29,5.29,0,0,1-5.246,5.384,5.278,5.278,0,0,1-2.651-.721,5.209,5.209,0,0,1-2.656-4.543,5.328,5.328,0,0,1,2.725-4.628c2.62-1.521,7.819-4.528,7.819-4.528s.008,7.767.008,9.036" transform="translate(804.579 -196.651)" fill="#fff"/>
      <path id="path640" d="M-.085-51.775c2.454-1.44,4.905-2.907,7.8-4.605a5.211,5.211,0,0,0,.033-9.106A5.211,5.211,0,0,0-.067-60.809c.016,3.353-.086,6.255-.018,9.034" transform="translate(756.324 -182.27)" fill="#fff"/>
    </g>
  </g>
</svg>
