<svg id="svg" version="1.1" xmlns="http://www.w3.org/2000/svg" xmlns:xlink="http://www.w3.org/1999/xlink" width="400" height="400" viewBox="0, 0, 400,400"><g id="svgg"><path id="path0" d="M172.000 0.400 C 172.000 0.644,170.188 0.800,167.363 0.800 C 163.062 0.800,162.710 0.858,162.516 1.600 C 162.325 2.329,161.970 2.400,158.516 2.400 C 155.062 2.400,154.707 2.471,154.516 3.200 C 154.330 3.910,153.970 4.000,151.316 4.000 C 148.662 4.000,148.302 4.090,148.116 4.800 C 147.932 5.502,147.570 5.600,145.157 5.600 C 142.840 5.600,142.328 5.726,141.907 6.400 C 141.509 7.038,140.974 7.200,139.266 7.200 C 137.462 7.200,137.092 7.326,136.916 8.000 C 136.739 8.677,136.370 8.800,134.516 8.800 C 132.662 8.800,132.293 8.923,132.116 9.600 C 131.947 10.247,131.570 10.400,130.149 10.400 C 128.887 10.400,128.199 10.625,127.707 11.200 C 127.274 11.706,126.527 12.000,125.674 12.000 C 124.662 12.000,124.273 12.200,124.116 12.800 C 123.969 13.361,123.570 13.600,122.780 13.600 C 121.996 13.600,121.575 13.849,121.394 14.420 C 121.251 14.870,120.834 15.210,120.467 15.173 C 117.939 14.925,116.316 15.233,116.116 16.000 C 115.957 16.606,115.570 16.800,114.516 16.800 C 113.462 16.800,113.075 16.994,112.916 17.600 C 112.757 18.206,112.370 18.400,111.316 18.400 C 110.262 18.400,109.875 18.594,109.716 19.200 C 109.557 19.806,109.170 20.000,108.116 20.000 C 107.062 20.000,106.675 20.194,106.516 20.800 C 106.357 21.406,105.970 21.600,104.916 21.600 C 103.862 21.600,103.475 21.794,103.316 22.400 C 103.168 22.966,102.770 23.200,101.957 23.200 C 101.240 23.200,100.619 23.501,100.307 24.000 C 100.032 24.440,99.491 24.800,99.104 24.800 C 98.667 24.800,98.400 25.103,98.400 25.600 C 98.400 26.267,98.133 26.400,96.800 26.400 C 95.467 26.400,95.200 26.533,95.200 27.200 C 95.200 27.852,94.933 28.000,93.763 28.000 C 92.662 28.000,92.276 28.187,92.116 28.800 C 92.000 29.243,91.570 29.600,91.153 29.600 C 90.667 29.600,90.400 29.883,90.400 30.400 C 90.400 31.052,90.133 31.200,88.963 31.200 C 87.862 31.200,87.476 31.387,87.316 32.000 C 87.200 32.443,86.770 32.800,86.353 32.800 C 85.867 32.800,85.600 33.083,85.600 33.600 C 85.600 34.252,85.333 34.400,84.163 34.400 C 83.062 34.400,82.676 34.587,82.516 35.200 C 82.400 35.643,81.970 36.000,81.553 36.000 C 81.067 36.000,80.800 36.283,80.800 36.800 C 80.800 37.333,80.533 37.600,80.000 37.600 C 79.467 37.600,79.200 37.867,79.200 38.400 C 79.200 39.052,78.933 39.200,77.763 39.200 C 76.662 39.200,76.276 39.387,76.116 40.000 C 76.000 40.443,75.570 40.800,75.153 40.800 C 74.667 40.800,74.400 41.083,74.400 41.600 C 74.400 42.133,74.133 42.400,73.600 42.400 C 73.067 42.400,72.800 42.667,72.800 43.200 C 72.800 43.733,72.533 44.000,72.000 44.000 C 71.467 44.000,71.200 44.267,71.200 44.800 C 71.200 45.419,70.933 45.600,70.023 45.600 C 69.344 45.600,68.624 45.907,68.323 46.326 C 68.035 46.726,67.485 47.170,67.100 47.314 C 66.715 47.457,66.400 47.851,66.400 48.187 C 66.400 48.533,66.052 48.800,65.600 48.800 C 65.067 48.800,64.800 49.067,64.800 49.600 C 64.800 50.133,64.533 50.400,64.000 50.400 C 63.467 50.400,63.200 50.667,63.200 51.200 C 63.200 51.733,62.933 52.000,62.400 52.000 C 61.867 52.000,61.600 52.267,61.600 52.800 C 61.600 53.333,61.333 53.600,60.800 53.600 C 60.267 53.600,60.000 53.867,60.000 54.400 C 60.000 54.933,59.733 55.200,59.200 55.200 C 58.667 55.200,58.400 55.467,58.400 56.000 C 58.400 56.533,58.133 56.800,57.600 56.800 C 57.067 56.800,56.800 57.067,56.800 57.600 C 56.800 58.133,56.533 58.400,56.000 58.400 C 55.467 58.400,55.200 58.667,55.200 59.200 C 55.200 59.733,54.933 60.000,54.400 60.000 C 53.867 60.000,53.600 60.267,53.600 60.800 C 53.600 61.333,53.333 61.600,52.800 61.600 C 52.267 61.600,52.000 61.867,52.000 62.400 C 52.000 62.933,51.733 63.200,51.200 63.200 C 50.667 63.200,50.400 63.467,50.400 64.000 C 50.400 64.533,50.133 64.800,49.600 64.800 C 49.067 64.800,48.800 65.067,48.800 65.600 C 48.800 66.052,48.533 66.400,48.187 66.400 C 47.851 66.400,47.457 66.715,47.314 67.100 C 47.170 67.485,46.726 68.035,46.326 68.323 C 45.907 68.624,45.600 69.344,45.600 70.023 C 45.600 70.933,45.419 71.200,44.800 71.200 C 44.267 71.200,44.000 71.467,44.000 72.000 C 44.000 72.533,43.733 72.800,43.200 72.800 C 42.667 72.800,42.400 73.067,42.400 73.600 C 42.400 74.133,42.133 74.400,41.600 74.400 C 41.083 74.400,40.800 74.667,40.800 75.153 C 40.800 75.570,40.443 76.000,40.000 76.116 C 39.387 76.276,39.200 76.662,39.200 77.763 C 39.200 78.933,39.052 79.200,38.400 79.200 C 37.867 79.200,37.600 79.467,37.600 80.000 C 37.600 80.533,37.333 80.800,36.800 80.800 C 36.303 80.800,36.000 81.067,36.000 81.504 C 36.000 81.891,35.640 82.432,35.200 82.707 C 34.690 83.026,34.400 83.640,34.400 84.403 C 34.400 85.333,34.222 85.600,33.600 85.600 C 33.083 85.600,32.800 85.867,32.800 86.353 C 32.800 86.770,32.443 87.200,32.000 87.316 C 31.387 87.476,31.200 87.862,31.200 88.963 C 31.200 90.133,31.052 90.400,30.400 90.400 C 29.883 90.400,29.600 90.667,29.600 91.153 C 29.600 91.570,29.243 92.000,28.800 92.116 C 28.194 92.275,28.000 92.662,28.000 93.716 C 28.000 94.770,27.806 95.157,27.200 95.316 C 26.587 95.476,26.400 95.862,26.400 96.963 C 26.400 98.133,26.252 98.400,25.600 98.400 C 25.100 98.400,24.800 98.667,24.800 99.111 C 24.800 99.502,24.440 100.130,24.000 100.507 C 23.560 100.884,23.200 101.623,23.200 102.149 C 23.200 102.770,22.919 103.180,22.400 103.316 C 21.794 103.475,21.600 103.862,21.600 104.916 C 21.600 105.970,21.406 106.357,20.800 106.516 C 20.194 106.675,20.000 107.062,20.000 108.116 C 20.000 109.170,19.806 109.557,19.200 109.716 C 18.594 109.875,18.400 110.262,18.400 111.316 C 18.400 112.370,18.206 112.757,17.600 112.916 C 16.994 113.075,16.800 113.462,16.800 114.516 C 16.800 115.570,16.606 115.957,16.000 116.116 C 15.233 116.316,14.925 117.939,15.173 120.467 C 15.210 120.834,14.870 121.251,14.420 121.394 C 13.849 121.575,13.600 121.996,13.600 122.780 C 13.600 123.570,13.361 123.969,12.800 124.116 C 12.200 124.273,12.000 124.662,12.000 125.674 C 12.000 126.527,11.706 127.274,11.200 127.707 C 10.625 128.199,10.400 128.887,10.400 130.149 C 10.400 131.570,10.247 131.947,9.600 132.116 C 8.923 132.293,8.800 132.662,8.800 134.516 C 8.800 136.370,8.677 136.739,8.000 136.916 C 7.325 137.092,7.200 137.462,7.200 139.274 C 7.200 140.927,7.016 141.580,6.400 142.107 C 5.755 142.660,5.600 143.287,5.600 145.349 C 5.600 147.570,5.495 147.934,4.800 148.116 C 4.090 148.302,4.000 148.662,4.000 151.316 C 4.000 153.970,3.910 154.330,3.200 154.516 C 2.471 154.707,2.400 155.062,2.400 158.516 C 2.400 161.970,2.329 162.325,1.600 162.516 C 0.858 162.710,0.800 163.062,0.800 167.363 C 0.800 170.188,0.644 172.000,0.400 172.000 C 0.141 172.000,0.000 176.667,0.000 185.200 C 0.000 193.733,0.141 198.400,0.400 198.401 C 0.620 198.401,90.440 198.402,200.000 198.402 C 309.560 198.402,399.380 198.401,399.600 198.401 C 399.859 198.400,400.000 193.733,400.000 185.200 C 400.000 176.667,399.859 172.000,399.600 172.000 C 399.356 172.000,399.200 170.188,399.200 167.363 C 399.200 163.062,399.142 162.710,398.400 162.516 C 397.671 162.325,397.600 161.970,397.600 158.516 C 397.600 155.062,397.529 154.707,396.800 154.516 C 396.090 154.330,396.000 153.970,396.000 151.316 C 396.000 148.662,395.910 148.302,395.200 148.116 C 394.505 147.934,394.400 147.570,394.400 145.349 C 394.400 143.287,394.245 142.660,393.600 142.107 C 392.984 141.580,392.800 140.927,392.800 139.274 C 392.800 137.462,392.675 137.092,392.000 136.916 C 391.323 136.739,391.200 136.370,391.200 134.516 C 391.200 132.662,391.077 132.293,390.400 132.116 C 389.753 131.947,389.600 131.570,389.600 130.149 C 389.600 128.887,389.375 128.199,388.800 127.707 C 388.294 127.274,388.000 126.527,388.000 125.674 C 388.000 124.662,387.800 124.273,387.200 124.116 C 386.576 123.953,386.400 123.570,386.400 122.377 C 386.400 121.536,386.192 120.719,385.938 120.562 C 385.652 120.385,385.585 120.452,385.762 120.738 C 385.933 121.015,385.787 121.200,385.398 121.200 C 385.020 121.200,384.779 120.908,384.821 120.500 C 385.079 117.964,384.771 116.317,384.000 116.116 C 383.394 115.957,383.200 115.570,383.200 114.516 C 383.200 113.462,383.006 113.075,382.400 112.916 C 381.794 112.757,381.600 112.370,381.600 111.316 C 381.600 110.262,381.406 109.875,380.800 109.716 C 380.194 109.557,380.000 109.170,380.000 108.116 C 380.000 107.062,379.806 106.675,379.200 106.516 C 378.594 106.357,378.400 105.970,378.400 104.916 C 378.400 103.862,378.206 103.475,377.600 103.316 C 377.081 103.180,376.800 102.770,376.800 102.149 C 376.800 101.623,376.440 100.884,376.000 100.507 C 375.560 100.130,375.200 99.502,375.200 99.111 C 375.200 98.667,374.900 98.400,374.400 98.400 C 373.733 98.400,373.600 98.133,373.600 96.800 C 373.600 95.467,373.467 95.200,372.800 95.200 C 372.148 95.200,372.000 94.933,372.000 93.763 C 372.000 92.662,371.813 92.276,371.200 92.116 C 370.757 92.000,370.400 91.570,370.400 91.153 C 370.400 90.667,370.117 90.400,369.600 90.400 C 368.948 90.400,368.800 90.133,368.800 88.963 C 368.800 87.862,368.613 87.476,368.000 87.316 C 367.557 87.200,367.200 86.770,367.200 86.353 C 367.200 85.867,366.917 85.600,366.400 85.600 C 365.778 85.600,365.600 85.333,365.600 84.403 C 365.600 83.640,365.310 83.026,364.800 82.707 C 364.360 82.432,364.000 81.891,364.000 81.504 C 364.000 81.067,363.697 80.800,363.200 80.800 C 362.667 80.800,362.400 80.533,362.400 80.000 C 362.400 79.467,362.133 79.200,361.600 79.200 C 360.948 79.200,360.800 78.933,360.800 77.763 C 360.800 76.662,360.613 76.276,360.000 76.116 C 359.557 76.000,359.200 75.570,359.200 75.153 C 359.200 74.667,358.917 74.400,358.400 74.400 C 357.867 74.400,357.600 74.133,357.600 73.600 C 357.600 73.067,357.333 72.800,356.800 72.800 C 356.267 72.800,356.000 72.533,356.000 72.000 C 356.000 71.467,355.733 71.200,355.200 71.200 C 354.581 71.200,354.400 70.933,354.400 70.023 C 354.400 69.344,354.093 68.624,353.674 68.323 C 353.274 68.035,352.830 67.485,352.686 67.100 C 352.543 66.715,352.149 66.400,351.813 66.400 C 351.467 66.400,351.200 66.052,351.200 65.600 C 351.200 65.067,350.933 64.800,350.400 64.800 C 349.867 64.800,349.600 64.533,349.600 64.000 C 349.600 63.467,349.333 63.200,348.800 63.200 C 348.267 63.200,348.000 62.933,348.000 62.400 C 348.000 61.867,347.733 61.600,347.200 61.600 C 346.667 61.600,346.400 61.333,346.400 60.800 C 346.400 60.267,346.133 60.000,345.600 60.000 C 345.067 60.000,344.800 59.733,344.800 59.200 C 344.800 58.667,344.533 58.400,344.000 58.400 C 343.467 58.400,343.200 58.133,343.200 57.600 C 343.200 57.067,342.933 56.800,342.400 56.800 C 341.867 56.800,341.600 56.533,341.600 56.000 C 341.600 55.467,341.333 55.200,340.800 55.200 C 340.267 55.200,340.000 54.933,340.000 54.400 C 340.000 53.867,339.733 53.600,339.200 53.600 C 338.667 53.600,338.400 53.333,338.400 52.800 C 338.400 52.267,338.133 52.000,337.600 52.000 C 337.067 52.000,336.800 51.733,336.800 51.200 C 336.800 50.667,336.533 50.400,336.000 50.400 C 335.467 50.400,335.200 50.133,335.200 49.600 C 335.200 49.067,334.933 48.800,334.400 48.800 C 333.948 48.800,333.600 48.533,333.600 48.187 C 333.600 47.851,333.285 47.457,332.900 47.314 C 332.515 47.170,331.965 46.726,331.677 46.326 C 331.376 45.907,330.656 45.600,329.977 45.600 C 329.067 45.600,328.800 45.419,328.800 44.800 C 328.800 44.267,328.533 44.000,328.000 44.000 C 327.467 44.000,327.200 43.733,327.200 43.200 C 327.200 42.667,326.933 42.400,326.400 42.400 C 325.867 42.400,325.600 42.133,325.600 41.600 C 325.600 41.083,325.333 40.800,324.847 40.800 C 324.430 40.800,324.000 40.443,323.884 40.000 C 323.724 39.387,323.338 39.200,322.237 39.200 C 321.067 39.200,320.800 39.052,320.800 38.400 C 320.800 37.867,320.533 37.600,320.000 37.600 C 319.467 37.600,319.200 37.333,319.200 36.800 C 319.200 36.283,318.933 36.000,318.447 36.000 C 318.030 36.000,317.600 35.643,317.484 35.200 C 317.324 34.587,316.938 34.400,315.837 34.400 C 314.667 34.400,314.400 34.252,314.400 33.600 C 314.400 33.083,314.133 32.800,313.647 32.800 C 313.230 32.800,312.800 32.443,312.684 32.000 C 312.524 31.387,312.138 31.200,311.037 31.200 C 309.867 31.200,309.600 31.052,309.600 30.400 C 309.600 29.883,309.333 29.600,308.847 29.600 C 308.430 29.600,308.000 29.243,307.884 28.800 C 307.724 28.187,307.338 28.000,306.237 28.000 C 305.067 28.000,304.800 27.852,304.800 27.200 C 304.800 26.533,304.533 26.400,303.200 26.400 C 301.867 26.400,301.600 26.267,301.600 25.600 C 301.600 25.103,301.333 24.800,300.896 24.800 C 300.509 24.800,299.968 24.440,299.693 24.000 C 299.381 23.501,298.760 23.200,298.043 23.200 C 297.230 23.200,296.832 22.966,296.684 22.400 C 296.525 21.794,296.138 21.600,295.084 21.600 C 294.030 21.600,293.643 21.406,293.484 20.800 C 293.325 20.194,292.938 20.000,291.884 20.000 C 290.830 20.000,290.443 19.806,290.284 19.200 C 290.125 18.594,289.738 18.400,288.684 18.400 C 287.630 18.400,287.243 18.206,287.084 17.600 C 286.925 16.994,286.538 16.800,285.484 16.800 C 284.430 16.800,284.043 16.606,283.884 16.000 C 283.684 15.233,282.061 14.925,279.533 15.173 C 279.166 15.210,278.749 14.870,278.606 14.420 C 278.425 13.849,278.004 13.600,277.220 13.600 C 276.430 13.600,276.031 13.361,275.884 12.800 C 275.727 12.200,275.338 12.000,274.326 12.000 C 273.473 12.000,272.726 11.706,272.293 11.200 C 271.801 10.625,271.113 10.400,269.851 10.400 C 268.430 10.400,268.053 10.247,267.884 9.600 C 267.707 8.923,267.338 8.800,265.484 8.800 C 263.630 8.800,263.261 8.677,263.084 8.000 C 262.908 7.326,262.538 7.200,260.734 7.200 C 259.026 7.200,258.491 7.038,258.093 6.400 C 257.672 5.726,257.160 5.600,254.843 5.600 C 252.430 5.600,252.068 5.502,251.884 4.800 C 251.698 4.090,251.338 4.000,248.684 4.000 C 246.030 4.000,245.670 3.910,245.484 3.200 C 245.293 2.471,244.938 2.400,241.484 2.400 C 238.030 2.400,237.675 2.329,237.484 1.600 C 237.290 0.858,236.938 0.800,232.637 0.800 C 229.812 0.800,228.000 0.644,228.000 0.400 C 228.000 0.137,218.400 0.000,200.000 0.000 C 181.600 0.000,172.000 0.137,172.000 0.400 " stroke="none" fill="#fcfcfc" fill-rule="evenodd"></path><path id="path1" d="M120.818 14.366 C 120.573 14.825,120.539 15.200,120.743 15.200 C 121.154 15.200,121.722 13.988,121.442 13.708 C 121.344 13.611,121.064 13.907,120.818 14.366 M278.419 13.800 C 278.409 14.394,279.123 15.410,279.374 15.159 C 279.494 15.040,279.329 14.595,279.009 14.171 C 278.688 13.747,278.422 13.580,278.419 13.800 M14.171 120.991 C 13.747 121.312,13.580 121.578,13.800 121.581 C 14.394 121.591,15.410 120.877,15.159 120.626 C 15.040 120.506,14.595 120.671,14.171 120.991 M0.000 199.202 C 0.000 199.998,0.399 200.000,200.000 200.000 C 399.601 200.000,400.000 199.998,400.000 199.202 C 400.000 198.405,399.601 198.403,200.000 198.403 C 0.399 198.403,0.000 198.405,0.000 199.202 " stroke="none" fill="#fcecf4" fill-rule="evenodd"></path><path id="path2" d="M0.000 200.900 C 0.000 201.299,40.267 201.400,200.000 201.400 C 359.733 201.400,400.000 201.299,400.000 200.900 C 400.000 200.501,359.733 200.400,200.000 200.400 C 40.267 200.400,0.000 200.501,0.000 200.900 " stroke="none" fill="#dc244c" fill-rule="evenodd"></path><path id="path3" d="M0.900 201.482 L 0.000 201.656 0.000 214.828 C 0.000 223.343,0.141 228.000,0.400 228.000 C 0.644 228.000,0.800 229.812,0.800 232.637 C 0.800 236.938,0.858 237.290,1.600 237.484 C 2.329 237.675,2.400 238.030,2.400 241.484 C 2.400 244.938,2.471 245.293,3.200 245.484 C 3.910 245.670,4.000 246.030,4.000 248.684 C 4.000 251.338,4.090 251.698,4.800 251.884 C 5.502 252.068,5.600 252.430,5.600 254.843 C 5.600 257.160,5.726 257.672,6.400 258.093 C 7.038 258.491,7.200 259.026,7.200 260.734 C 7.200 262.538,7.326 262.908,8.000 263.084 C 8.677 263.261,8.800 263.630,8.800 265.484 C 8.800 267.338,8.923 267.707,9.600 267.884 C 10.262 268.057,10.400 268.430,10.400 270.043 C 10.400 271.560,10.578 272.104,11.200 272.493 C 11.742 272.831,12.000 273.426,12.000 274.334 C 12.000 275.338,12.201 275.727,12.800 275.884 C 13.432 276.049,13.600 276.430,13.600 277.693 C 13.600 279.096,13.698 279.268,14.400 279.084 C 15.134 278.892,15.200 279.072,15.200 281.275 C 15.200 283.338,15.312 283.704,16.000 283.884 C 16.606 284.043,16.800 284.430,16.800 285.484 C 16.800 286.538,16.994 286.925,17.600 287.084 C 18.206 287.243,18.400 287.630,18.400 288.684 C 18.400 289.738,18.594 290.125,19.200 290.284 C 19.806 290.443,20.000 290.830,20.000 291.884 C 20.000 292.938,20.194 293.325,20.800 293.484 C 21.406 293.643,21.600 294.030,21.600 295.084 C 21.600 296.138,21.794 296.525,22.400 296.684 C 22.966 296.832,23.200 297.230,23.200 298.043 C 23.200 298.760,23.501 299.381,24.000 299.693 C 24.440 299.968,24.800 300.509,24.800 300.896 C 24.800 301.333,25.103 301.600,25.600 301.600 C 26.252 301.600,26.400 301.867,26.400 303.037 C 26.400 304.138,26.587 304.524,27.200 304.684 C 27.806 304.843,28.000 305.230,28.000 306.284 C 28.000 307.338,28.194 307.725,28.800 307.884 C 29.243 308.000,29.600 308.430,29.600 308.847 C 29.600 309.333,29.883 309.600,30.400 309.600 C 31.052 309.600,31.200 309.867,31.200 311.037 C 31.200 312.138,31.387 312.524,32.000 312.684 C 32.443 312.800,32.800 313.230,32.800 313.647 C 32.800 314.133,33.083 314.400,33.600 314.400 C 34.252 314.400,34.400 314.667,34.400 315.837 C 34.400 316.938,34.587 317.324,35.200 317.484 C 35.643 317.600,36.000 318.030,36.000 318.447 C 36.000 318.933,36.283 319.200,36.800 319.200 C 37.333 319.200,37.600 319.467,37.600 320.000 C 37.600 320.533,37.867 320.800,38.400 320.800 C 39.052 320.800,39.200 321.067,39.200 322.237 C 39.200 323.338,39.387 323.724,40.000 323.884 C 40.443 324.000,40.800 324.430,40.800 324.847 C 40.800 325.333,41.083 325.600,41.600 325.600 C 42.133 325.600,42.400 325.867,42.400 326.400 C 42.400 326.933,42.667 327.200,43.200 327.200 C 43.733 327.200,44.000 327.467,44.000 328.000 C 44.000 328.533,44.267 328.800,44.800 328.800 C 45.419 328.800,45.600 329.067,45.600 329.977 C 45.600 330.656,45.907 331.376,46.326 331.677 C 46.726 331.965,47.170 332.515,47.314 332.900 C 47.457 333.285,47.851 333.600,48.187 333.600 C 48.533 333.600,48.800 333.948,48.800 334.400 C 48.800 334.933,49.067 335.200,49.600 335.200 C 50.133 335.200,50.400 335.467,50.400 336.000 C 50.400 336.533,50.667 336.800,51.200 336.800 C 51.733 336.800,52.000 337.067,52.000 337.600 C 52.000 338.133,52.267 338.400,52.800 338.400 C 53.333 338.400,53.600 338.667,53.600 339.200 C 53.600 339.733,53.867 340.000,54.400 340.000 C 54.933 340.000,55.200 340.267,55.200 340.800 C 55.200 341.333,55.467 341.600,56.000 341.600 C 56.533 341.600,56.800 341.867,56.800 342.400 C 56.800 342.933,57.067 343.200,57.600 343.200 C 58.133 343.200,58.400 343.467,58.400 344.000 C 58.400 344.533,58.667 344.800,59.200 344.800 C 59.733 344.800,60.000 345.067,60.000 345.600 C 60.000 346.133,60.267 346.400,60.800 346.400 C 61.333 346.400,61.600 346.667,61.600 347.200 C 61.600 347.733,61.867 348.000,62.400 348.000 C 62.933 348.000,63.200 348.267,63.200 348.800 C 63.200 349.333,63.467 349.600,64.000 349.600 C 64.533 349.600,64.800 349.867,64.800 350.400 C 64.800 350.933,65.067 351.200,65.600 351.200 C 66.065 351.200,66.400 351.467,66.400 351.837 C 66.400 352.188,66.743 352.565,67.163 352.674 C 67.583 352.784,68.016 353.217,68.126 353.637 C 68.275 354.209,68.685 354.400,69.763 354.400 C 70.933 354.400,71.200 354.548,71.200 355.200 C 71.200 355.733,71.467 356.000,72.000 356.000 C 72.533 356.000,72.800 356.267,72.800 356.800 C 72.800 357.333,73.067 357.600,73.600 357.600 C 74.133 357.600,74.400 357.867,74.400 358.400 C 74.400 358.917,74.667 359.200,75.153 359.200 C 75.570 359.200,76.000 359.557,76.116 360.000 C 76.276 360.613,76.662 360.800,77.763 360.800 C 78.933 360.800,79.200 360.948,79.200 361.600 C 79.200 362.133,79.467 362.400,80.000 362.400 C 80.533 362.400,80.800 362.667,80.800 363.200 C 80.800 363.717,81.067 364.000,81.553 364.000 C 81.970 364.000,82.400 364.357,82.516 364.800 C 82.676 365.413,83.062 365.600,84.163 365.600 C 85.333 365.600,85.600 365.748,85.600 366.400 C 85.600 366.917,85.867 367.200,86.353 367.200 C 86.770 367.200,87.200 367.557,87.316 368.000 C 87.476 368.613,87.862 368.800,88.963 368.800 C 90.133 368.800,90.400 368.948,90.400 369.600 C 90.400 370.117,90.667 370.400,91.153 370.400 C 91.570 370.400,92.000 370.757,92.116 371.200 C 92.276 371.813,92.662 372.000,93.763 372.000 C 94.933 372.000,95.200 372.148,95.200 372.800 C 95.200 373.467,95.467 373.600,96.800 373.600 C 98.133 373.600,98.400 373.733,98.400 374.400 C 98.400 374.897,98.667 375.200,99.104 375.200 C 99.491 375.200,100.032 375.560,100.307 376.000 C 100.619 376.499,101.240 376.800,101.957 376.800 C 102.770 376.800,103.168 377.034,103.316 377.600 C 103.475 378.206,103.862 378.400,104.916 378.400 C 105.970 378.400,106.357 378.594,106.516 379.200 C 106.676 379.813,107.062 380.000,108.163 380.000 C 109.333 380.000,109.600 380.148,109.600 380.800 C 109.600 381.463,109.867 381.600,111.153 381.600 C 112.370 381.600,112.752 381.773,112.916 382.400 C 113.075 383.006,113.462 383.200,114.516 383.200 C 115.587 383.200,115.957 383.391,116.124 384.030 C 116.317 384.767,116.603 384.849,118.670 384.757 C 120.863 384.659,120.993 384.704,120.875 385.526 C 120.764 386.302,120.932 386.400,122.375 386.400 C 123.733 386.400,124.000 386.531,124.000 387.200 C 124.000 387.917,124.267 388.000,126.563 388.000 C 128.928 388.000,129.109 388.061,128.916 388.800 C 128.732 389.502,128.904 389.600,130.307 389.600 C 131.570 389.600,131.951 389.768,132.116 390.400 C 132.293 391.077,132.662 391.200,134.516 391.200 C 136.370 391.200,136.739 391.323,136.916 392.000 C 137.092 392.674,137.462 392.800,139.266 392.800 C 140.974 392.800,141.509 392.962,141.907 393.600 C 142.328 394.274,142.840 394.400,145.157 394.400 C 147.570 394.400,147.932 394.498,148.116 395.200 C 148.302 395.910,148.662 396.000,151.316 396.000 C 153.970 396.000,154.330 396.090,154.516 396.800 C 154.707 397.529,155.062 397.600,158.516 397.600 C 161.970 397.600,162.325 397.671,162.516 398.400 C 162.710 399.142,163.062 399.200,167.363 399.200 C 170.188 399.200,172.000 399.356,172.000 399.600 C 172.000 399.863,181.600 400.000,200.000 400.000 C 218.400 400.000,228.000 399.863,228.000 399.600 C 228.000 399.356,229.812 399.200,232.637 399.200 C 236.938 399.200,237.290 399.142,237.484 398.400 C 237.675 397.671,238.030 397.600,241.484 397.600 C 244.938 397.600,245.293 397.529,245.484 396.800 C 245.670 396.090,246.030 396.000,248.684 396.000 C 251.338 396.000,251.698 395.910,251.884 395.200 C 252.068 394.498,252.430 394.400,254.843 394.400 C 257.160 394.400,257.672 394.274,258.093 393.600 C 258.491 392.962,259.026 392.800,260.734 392.800 C 262.538 392.800,262.908 392.674,263.084 392.000 C 263.261 391.323,263.630 391.200,265.484 391.200 C 267.338 391.200,267.707 391.077,267.884 390.400 C 268.049 389.768,268.430 389.600,269.693 389.600 C 271.096 389.600,271.268 389.502,271.084 388.800 C 270.891 388.061,271.072 388.000,273.437 388.000 C 275.733 388.000,276.000 387.917,276.000 387.200 C 276.000 386.531,276.267 386.400,277.625 386.400 C 279.068 386.400,279.236 386.302,279.125 385.526 C 279.007 384.704,279.137 384.659,281.330 384.757 C 283.397 384.849,283.683 384.767,283.876 384.030 C 284.043 383.391,284.413 383.200,285.484 383.200 C 286.538 383.200,286.925 383.006,287.084 382.400 C 287.248 381.773,287.630 381.600,288.847 381.600 C 290.133 381.600,290.400 381.463,290.400 380.800 C 290.400 380.148,290.667 380.000,291.837 380.000 C 292.938 380.000,293.324 379.813,293.484 379.200 C 293.643 378.594,294.030 378.400,295.084 378.400 C 296.138 378.400,296.525 378.206,296.684 377.600 C 296.832 377.034,297.230 376.800,298.043 376.800 C 298.760 376.800,299.381 376.499,299.693 376.000 C 299.968 375.560,300.509 375.200,300.896 375.200 C 301.333 375.200,301.600 374.897,301.600 374.400 C 301.600 373.733,301.867 373.600,303.200 373.600 C 304.533 373.600,304.800 373.467,304.800 372.800 C 304.800 372.148,305.067 372.000,306.237 372.000 C 307.338 372.000,307.724 371.813,307.884 371.200 C 308.000 370.757,308.430 370.400,308.847 370.400 C 309.333 370.400,309.600 370.117,309.600 369.600 C 309.600 368.948,309.867 368.800,311.037 368.800 C 312.138 368.800,312.524 368.613,312.684 368.000 C 312.800 367.557,313.230 367.200,313.647 367.200 C 314.133 367.200,314.400 366.917,314.400 366.400 C 314.400 365.748,314.667 365.600,315.837 365.600 C 316.938 365.600,317.324 365.413,317.484 364.800 C 317.600 364.357,318.030 364.000,318.447 364.000 C 318.933 364.000,319.200 363.717,319.200 363.200 C 319.200 362.667,319.467 362.400,320.000 362.400 C 320.533 362.400,320.800 362.133,320.800 361.600 C 320.800 360.948,321.067 360.800,322.237 360.800 C 323.338 360.800,323.724 360.613,323.884 360.000 C 324.000 359.557,324.430 359.200,324.847 359.200 C 325.333 359.200,325.600 358.917,325.600 358.400 C 325.600 357.867,325.867 357.600,326.400 357.600 C 326.933 357.600,327.200 357.333,327.200 356.800 C 327.200 356.267,327.467 356.000,328.000 356.000 C 328.533 356.000,328.800 355.733,328.800 355.200 C 328.800 354.548,329.067 354.400,330.237 354.400 C 331.338 354.400,331.724 354.213,331.884 353.600 C 331.999 353.160,332.359 352.800,332.684 352.800 C 333.009 352.800,333.369 352.440,333.484 352.000 C 333.600 351.557,334.030 351.200,334.447 351.200 C 334.933 351.200,335.200 350.917,335.200 350.400 C 335.200 349.867,335.467 349.600,336.000 349.600 C 336.533 349.600,336.800 349.333,336.800 348.800 C 336.800 348.267,337.067 348.000,337.600 348.000 C 338.133 348.000,338.400 347.733,338.400 347.200 C 338.400 346.667,338.667 346.400,339.200 346.400 C 339.733 346.400,340.000 346.133,340.000 345.600 C 340.000 345.067,340.267 344.800,340.800 344.800 C 341.333 344.800,341.600 344.533,341.600 344.000 C 341.600 343.467,341.867 343.200,342.400 343.200 C 342.933 343.200,343.200 342.933,343.200 342.400 C 343.200 341.867,343.467 341.600,344.000 341.600 C 344.533 341.600,344.800 341.333,344.800 340.800 C 344.800 340.267,345.067 340.000,345.600 340.000 C 346.133 340.000,346.400 339.733,346.400 339.200 C 346.400 338.667,346.667 338.400,347.200 338.400 C 347.733 338.400,348.000 338.133,348.000 337.600 C 348.000 337.067,348.267 336.800,348.800 336.800 C 349.333 336.800,349.600 336.533,349.600 336.000 C 349.600 335.467,349.867 335.200,350.400 335.200 C 350.933 335.200,351.200 334.933,351.200 334.400 C 351.200 333.948,351.467 333.600,351.813 333.600 C 352.149 333.600,352.543 333.285,352.686 332.900 C 352.830 332.515,353.274 331.965,353.674 331.677 C 354.093 331.376,354.400 330.656,354.400 329.977 C 354.400 329.067,354.581 328.800,355.200 328.800 C 355.733 328.800,356.000 328.533,356.000 328.000 C 356.000 327.467,356.267 327.200,356.800 327.200 C 357.333 327.200,357.600 326.933,357.600 326.400 C 357.600 325.867,357.867 325.600,358.400 325.600 C 358.917 325.600,359.200 325.333,359.200 324.847 C 359.200 324.430,359.557 324.000,360.000 323.884 C 360.613 323.724,360.800 323.338,360.800 322.237 C 360.800 321.067,360.948 320.800,361.600 320.800 C 362.133 320.800,362.400 320.533,362.400 320.000 C 362.400 319.467,362.667 319.200,363.200 319.200 C 363.717 319.200,364.000 318.933,364.000 318.447 C 364.000 318.030,364.357 317.600,364.800 317.484 C 365.413 317.324,365.600 316.938,365.600 315.837 C 365.600 314.667,365.748 314.400,366.400 314.400 C 366.917 314.400,367.200 314.133,367.200 313.647 C 367.200 313.230,367.557 312.800,368.000 312.684 C 368.613 312.524,368.800 312.138,368.800 311.037 C 368.800 309.867,368.948 309.600,369.600 309.600 C 370.117 309.600,370.400 309.333,370.400 308.847 C 370.400 308.430,370.757 308.000,371.200 307.884 C 371.813 307.724,372.000 307.338,372.000 306.237 C 372.000 305.067,372.148 304.800,372.800 304.800 C 373.467 304.800,373.600 304.533,373.600 303.200 C 373.600 301.867,373.733 301.600,374.400 301.600 C 374.897 301.600,375.200 301.333,375.200 300.896 C 375.200 300.509,375.560 299.968,376.000 299.693 C 376.499 299.381,376.800 298.760,376.800 298.043 C 376.800 297.230,377.034 296.832,377.600 296.684 C 378.206 296.525,378.400 296.138,378.400 295.084 C 378.400 294.030,378.594 293.643,379.200 293.484 C 379.806 293.325,380.000 292.938,380.000 291.884 C 380.000 290.830,380.194 290.443,380.800 290.284 C 381.406 290.125,381.600 289.738,381.600 288.684 C 381.600 287.630,381.794 287.243,382.400 287.084 C 383.006 286.925,383.200 286.538,383.200 285.484 C 383.200 284.430,383.394 284.043,384.000 283.884 C 384.688 283.704,384.800 283.338,384.800 281.275 C 384.800 279.072,384.866 278.892,385.600 279.084 C 386.304 279.268,386.400 279.096,386.400 277.647 C 386.400 276.267,386.530 276.000,387.200 276.000 C 387.858 276.000,388.000 275.733,388.000 274.496 C 388.000 273.426,388.230 272.849,388.800 272.493 C 389.422 272.104,389.600 271.560,389.600 270.043 C 389.600 268.430,389.738 268.057,390.400 267.884 C 391.077 267.707,391.200 267.338,391.200 265.484 C 391.200 263.630,391.323 263.261,392.000 263.084 C 392.674 262.908,392.800 262.538,392.800 260.734 C 392.800 259.026,392.962 258.491,393.600 258.093 C 394.274 257.672,394.400 257.160,394.400 254.843 C 394.400 252.430,394.498 252.068,395.200 251.884 C 395.910 251.698,396.000 251.338,396.000 248.684 C 396.000 246.030,396.090 245.670,396.800 245.484 C 397.529 245.293,397.600 244.938,397.600 241.484 C 397.600 238.030,397.671 237.675,398.400 237.484 C 399.142 237.290,399.200 236.938,399.200 232.637 C 399.200 229.812,399.356 228.000,399.600 228.000 C 399.859 228.000,400.000 223.350,400.000 214.850 L 400.000 201.700 398.750 201.450 C 397.367 201.173,2.338 201.205,0.900 201.482 " stroke="none" fill="#dc143c" fill-rule="evenodd"></path><path id="path4" d="M99.900 200.300 C 154.955 200.356,245.045 200.356,300.100 200.300 C 355.155 200.244,310.110 200.198,200.000 200.198 C 89.890 200.198,44.845 200.244,99.900 200.300 " stroke="none" fill="#ec4840" fill-rule="evenodd"></path></g></svg>