<svg xmlns="http://www.w3.org/2000/svg" width="31.271" height="20.435" viewBox="0 0 31.271 20.435">
  <path id="Path_1" data-name="Path 1" d="M16316.135,9870.433a.833.833,0,0,1-.582-.236.861.861,0,0,1-.008-1.188l7.948-7.961h-27.669a.836.836,0,0,1,0-1.671h27.679l-7.948-7.962a.852.852,0,0,1,0-1.182.808.808,0,0,1,.572-.234.781.781,0,0,1,.58.252l9.32,9.386a.85.85,0,0,1,.239.587.753.753,0,0,1-.062.313,1.033,1.033,0,0,1-.182.28l-9.3,9.368A.822.822,0,0,1,16316.135,9870.433Z" transform="translate(-16295.001 -9849.998)" fill="#fff"/>
</svg>
