<svg xmlns="http://www.w3.org/2000/svg" width="60.811" height="55.003" viewBox="0 0 60.811 55.003">
  <g id="Group_123" data-name="Group 123" transform="translate(-172.768 549.86)">
    <path id="path122" d="M-7.052-29.777c-.077.245-.628.4-.871.327a4.782,4.782,0,0,1-2.748-1.985,4.88,4.88,0,0,1-.72-2.616,5.342,5.342,0,0,1,.2-1.479.462.462,0,0,1,.573-.314.462.462,0,0,1,.316.573,4.317,4.317,0,0,0-.166,1.22,2.981,2.981,0,0,0,.623,1.789,4.665,4.665,0,0,0,2.519,1.589c.243.075.347.652.273.9M-8.435-50.211a21.687,21.687,0,0,1-1.856,7.849c-1.8,4.31-3.451,8.909-1.711,11.727a5.174,5.174,0,0,0,3.73,2.7,5.575,5.575,0,0,0,1.33.167A5.552,5.552,0,0,0-1.5-32.229,4.094,4.094,0,0,0-1.469-34.2a5.471,5.471,0,0,0-.273-1.036c-.836-2.6-2.822-6-3.4-11.386-.142-2.638-.218-4.127-1.48-5.662A6.252,6.252,0,0,0-7.81-53.456a5.964,5.964,0,0,0-.545-.338l.782.78a1.375,1.375,0,0,1,0,1.942Z" transform="translate(234.942 -485.742)" fill="#fff"/>
    <path id="path126" d="M-36.227-31.976a2.311,2.311,0,0,1,.65-1.324,2.314,2.314,0,0,1,1.323-.652,2.328,2.328,0,0,1,1.978.652,2.334,2.334,0,0,1,0,3.3,2.332,2.332,0,0,1-3.3,0,2.32,2.32,0,0,1-.65-1.975m6.479-10.074a1.536,1.536,0,0,1,2.172,0,1.533,1.533,0,0,1,.437.954,1.523,1.523,0,0,1-.438,1.217,1.523,1.523,0,0,1-1.217.438,1.525,1.525,0,0,1-.955-.438,1.533,1.533,0,0,1,0-2.171m-5.143,31.778c-.589,2.9-4.213,3.637-6.524,1.326l-8.876-8.877L-59.267-26.8c-2.31-2.312-1.575-5.936,1.328-6.526l6.716-1.366c-.2,3.3,1.626,6.527,6.3,7.247a37.545,37.545,0,0,0,3.792.461c2.906.263,4.686.621,8.547,5.392Zm8.482-42.741a.51.51,0,0,1,0-.716l.008-.007a.5.5,0,0,1,.716,0l5.608,5.606,5.6,5.6a.506.506,0,0,1,0,.717l-.007.007a.506.506,0,0,1-.716,0l-5.6-5.6Zm4.443,14.174a1.042,1.042,0,0,1-1.471,0,1.038,1.038,0,0,1,0-1.472,1.039,1.039,0,0,1,1.471,0,1.04,1.04,0,0,1,0,1.472m-40.042,3.205c-3.7.755-4.644,5.383-1.694,8.333l11.394,11.4,11.4,11.4c2.948,2.95,7.578,2.009,8.33-1.7l4.927-24.229,11.391-11.391.289.288a1.375,1.375,0,0,0,1.942,0l2.324-2.325.863-.861a1.375,1.375,0,0,0,0-1.942l-.783-.78-4.569-4.57-5.35-5.35a1.375,1.375,0,0,0-1.944,0l-3.184,3.185a1.375,1.375,0,0,0,0,1.943l.289.289-11.39,11.39Z" transform="translate(238.215 -492.092)" fill="#fff"/>
    <path id="path130" d="M-3.34-1.694c-2.9.589-3.637,4.214-1.327,6.526l8.975,8.973,8.876,8.877c2.311,2.31,5.935,1.574,6.524-1.326l2.3-11.316c-3.861-4.771-5.641-5.13-8.546-5.393a37.339,37.339,0,0,1-3.793-.46C5,3.467,3.179.238,3.376-3.06Z" transform="translate(183.615 -523.72)" fill="#04bccb"/>
    <path id="path134" d="M-2.476-.029A2.318,2.318,0,0,0-3.8.624a2.308,2.308,0,0,0-.649,1.323A2.321,2.321,0,0,0-3.8,3.923a2.334,2.334,0,0,0,3.3,0,2.334,2.334,0,0,0,0-3.3A2.327,2.327,0,0,0-2.476-.029" transform="translate(206.437 -526.015)" fill="#04bccb"/>
    <path id="path138" d="M-.56-.558a1.532,1.532,0,0,0,0,2.171,1.522,1.522,0,0,0,.955.438A1.519,1.519,0,0,0,2.049.4a1.534,1.534,0,0,0-.436-.955,1.537,1.537,0,0,0-2.172,0" transform="translate(209.027 -533.584)" fill="#04bccb"/>
    <path id="path142" d="M-.379-.379A1.04,1.04,0,0,0,1.092,1.093,1.04,1.04,0,1,0-.379-.379" transform="translate(215.157 -532.023)" fill="#04bccb"/>
    <path id="path146" d="M-1.08-.184a.506.506,0,0,0-.716,0L-1.8-.177a.509.509,0,0,0,0,.716L3.8,6.145l5.6,5.6a.506.506,0,0,0,.716,0l.007-.007a.506.506,0,0,0,0-.717l-5.6-5.6Z" transform="translate(213.611 -545.643)" fill="#fff"/>
    <path id="path150" d="M-.961-.023a.462.462,0,0,0-.573.314,5.343,5.343,0,0,0-.2,1.48,4.879,4.879,0,0,0,.72,2.615A4.78,4.78,0,0,0,1.732,6.37c.243.075.795-.082.872-.327s-.03-.82-.274-.895A4.663,4.663,0,0,1-.188,3.56,2.979,2.979,0,0,1-.812,1.771,4.314,4.314,0,0,1-.645.551.463.463,0,0,0-.961-.023" transform="translate(225.286 -521.563)" fill="#04bccb"/>
  </g>
</svg>
