<svg xmlns="http://www.w3.org/2000/svg" width="70.095" height="50.781" viewBox="0 0 70.095 50.781">
  <g id="Group_125" data-name="Group 125" transform="translate(-1316.068 544.627)">
    <path id="path524" d="M-1.421-8.709a2.7,2.7,0,0,1-1.53,2.544l.028.144h7.2c.111.006.22.009.332.009a6.037,6.037,0,0,0,6.024-6.422A6.065,6.065,0,0,0,5-18.071a6.035,6.035,0,0,0-6.421,6.024v.114h0Z" transform="translate(1320.623 -496.83)" fill="#fff"/>
    <path id="path528" d="M-5.271,0a5.673,5.673,0,0,0-5.673,5.672V8.425H7.391V5.672A5.672,5.672,0,0,0,1.717,0Z" transform="translate(1327.012 -502.272)" fill="#fff"/>
    <path id="path532" d="M-46.814-26.051V-50.859a3.169,3.169,0,0,0-3.1-3.23H-94.1a3.17,3.17,0,0,0-3.1,3.23v25.154a8.515,8.515,0,0,1,1.98.378V-50.859A1.192,1.192,0,0,1-94.1-52.112h44.192a1.192,1.192,0,0,1,1.119,1.252v25.425a7.8,7.8,0,0,1,1.978-.616" transform="translate(1422.909 -490.538)" fill="#fff"/>
    <path id="path536" d="M0-4.173A4.488,4.488,0,0,0,4.487.316,4.491,4.491,0,0,0,8.98-4.173,4.492,4.492,0,0,0,4.487-8.664,4.489,4.489,0,0,0,0-4.173" transform="translate(1334.49 -503.755)" fill="#fff"/>
    <path id="path540" d="M0-5.649A6.08,6.08,0,0,0,6.08.43,6.08,6.08,0,0,0,12.16-5.649a6.081,6.081,0,0,0-6.081-6.08A6.08,6.08,0,0,0,0-5.649" transform="translate(1345.013 -503.337)" fill="#fff"/>
    <path id="path544" d="M-5.31,0a5.715,5.715,0,0,0-5.715,5.715V8.488H7.443V5.715A5.714,5.714,0,0,0,1.728,0Z" transform="translate(1352.884 -502.334)" fill="#fff"/>
    <path id="path548" d="M-5.648,0a6.08,6.08,0,0,0-6.08,6.08,6.08,6.08,0,0,0,6.08,6.079A6.08,6.08,0,0,0,.431,6.08,6.08,6.08,0,0,0-5.648,0" transform="translate(1382.579 -515.066)" fill="#fff"/>
    <path id="path552" d="M-5.311,0a5.716,5.716,0,0,0-5.716,5.715V8.488H7.44V5.715A5.713,5.713,0,0,0,1.725,0Z" transform="translate(1378.723 -502.334)" fill="#fff"/>
    <path id="path556" d="M-2.412,0a4.2,4.2,0,0,0-2.6.9A6.46,6.46,0,0,1-1.936,6.27H4A6.373,6.373,0,0,1,6.126,1.646,4.215,4.215,0,0,0,2.786,0Z" transform="translate(1363.019 -503.015)" fill="#fff"/>
    <path id="path560" d="M0-1.53A6.375,6.375,0,0,1,2.121,3.094H8.077a6.464,6.464,0,0,1,3.062-5.368,4.2,4.2,0,0,0-2.6-.9h-5.2A4.208,4.208,0,0,0,0-1.53" transform="translate(1333.042 -499.839)" fill="#fff"/>
    <path id="path564" d="M-3.914-.008a4.521,4.521,0,0,0-4.2,4.2,4.5,4.5,0,0,0,4.49,4.788l.248-.008H1.992l.021-.107a2.015,2.015,0,0,1-1.14-1.9v-2.4h0l0-.085A4.5,4.5,0,0,0-3.914-.008" transform="translate(1366.789 -512.393)" fill="#fff"/>
    <path id="path568" d="M-5.857-2.257A9.644,9.644,0,0,0-12.1-4.687l-.058,8.926Z" transform="translate(1364.178 -535.799)" fill="#fff"/>
    <path id="path572" d="M-10.207,0c-6.32,0-10.986,5.123-10.986,11.442A11.442,11.442,0,0,0-9.752,22.884c4.429,0,8.55-2.617,10.069-5.993L-9.978,11.442V.006Z" transform="translate(1360.603 -540.545)" fill="#fff"/>
    <path id="path576" d="M-.887-6.954l2.349-7.485L-.186-12.745-1.843-7.465Z" transform="translate(1356.481 -521.21)" fill="#fff"/>
    <path id="path580" d="M-.889-4.3.564-8.923-1.084-7.23l-.761,2.421Z" transform="translate(1355.243 -524.531)" fill="#fff"/>
    <path id="path584" d="M-.889-8.144l2.317-7.384a10.682,10.682,0,0,0-.683-1.381L-1.847-8.655Z" transform="translate(1360.2 -518.029)" fill="#fff"/>
    <path id="path588" d="M-.889-7.035.862-12.611a10.45,10.45,0,0,0-.49-2l-2.217,7.06Z" transform="translate(1361.439 -518.475)" fill="#fff"/>
    <path id="path592" d="M-.521-4.861a10.226,10.226,0,0,0,1-4.7q0-.27-.017-.537L-1.083-5.163Z" transform="translate(1361.915 -520.196)" fill="#fff"/>
    <path id="path596" d="M0-8.407.957-7.9l2.871-9.147c-.126-.142-.254-.279-.387-.413l-.887.912Z" transform="translate(1355.875 -519.605)" fill="#fff"/>
    <path id="path600" d="M-1.227,0l-1.32,1.357.764.411Z" transform="translate(1354.896 -531.258)" fill="#fff"/>
    <path id="path604" d="M-.889-8.856l2.655-8.46a10.565,10.565,0,0,0-.78-1.072l-2.832,9.02Z" transform="translate(1358.961 -517.98)" fill="#fff"/>
  </g>
</svg>
