<svg xmlns="http://www.w3.org/2000/svg" width="68.358" height="67.331" viewBox="0 0 68.358 67.331">
  <g id="Group_124" data-name="Group 124" transform="translate(-963.074 557.71)">
    <path id="path276" d="M-14.336-5.287l-2.576,2.77-2.416,2.6a2.786,2.786,0,0,1-3.941.144l-.041-.037a2.789,2.789,0,0,1-.143-3.941l2.414-2.6,2.578-2.772a2.784,2.784,0,0,1,3.937-.146l.044.039a2.789,2.789,0,0,1,.144,3.941M-8-3.2l.041.039A2.789,2.789,0,0,1-7.812.776l-2.575,2.772-2.417,2.6a2.786,2.786,0,0,1-3.939.147l-.042-.039a2.787,2.787,0,0,1-.145-3.939l2.417-2.6,2.573-2.772A2.791,2.791,0,0,1-8-3.2M-1.474,2.86l.042.039a2.786,2.786,0,0,1,.144,3.939L-3.862,9.61l-2.416,2.6a2.79,2.79,0,0,1-3.941.145l-.04-.037A2.789,2.789,0,0,1-10.4,8.375l2.416-2.6L-5.412,3A2.788,2.788,0,0,1-1.474,2.86M5.053,8.923l.041.038A2.792,2.792,0,0,1,5.237,12.9l-2.576,2.77-2.415,2.6a2.789,2.789,0,0,1-3.942.143l-.04-.037a2.792,2.792,0,0,1-.144-3.941l2.416-2.6L1.111,9.069a2.79,2.79,0,0,1,3.942-.146m6.523,6.065.042.037a2.788,2.788,0,0,1,.142,3.941L9.185,21.737l-2.415,2.6a2.787,2.787,0,0,1-3.94.146l-.041-.038A2.79,2.79,0,0,1,2.643,20.5L5.06,17.9l2.574-2.772a2.788,2.788,0,0,1,3.942-.144M18.1,21.051l.041.037a2.789,2.789,0,0,1,.146,3.941L15.711,27.8,13.3,30.4a2.793,2.793,0,0,1-3.942.143L9.313,30.5a2.787,2.787,0,0,1-.143-3.94l2.414-2.6,2.577-2.773a2.79,2.79,0,0,1,3.94-.143M5.053,39.269,2.476,42.041l-2.415,2.6a2.787,2.787,0,0,1-3.94.143l-.042-.039A2.788,2.788,0,0,1-4.065,40.8l2.417-2.6,2.575-2.77a2.788,2.788,0,0,1,3.94-.146l.041.039a2.787,2.787,0,0,1,.146,3.941m-15.456-.55-.041-.038a2.789,2.789,0,0,1-.145-3.939l2.417-2.6,2.576-2.77a2.787,2.787,0,0,1,3.94-.145l.041.037A2.789,2.789,0,0,1-1.471,33.2l-2.576,2.772-2.415,2.6a2.79,2.79,0,0,1-3.941.143m-6.523-6.062-.042-.039a2.786,2.786,0,0,1-.144-3.941l2.415-2.6,2.575-2.771a2.79,2.79,0,0,1,3.941-.143l.04.037A2.787,2.787,0,0,1-8,27.141l-2.577,2.772-2.415,2.6a2.788,2.788,0,0,1-3.938.143m-6.524-6.065-.044-.037a2.794,2.794,0,0,1-.143-3.942l2.416-2.6,2.575-2.773a2.79,2.79,0,0,1,3.941-.145l.039.039a2.787,2.787,0,0,1,.145,3.94L-17.1,23.848l-2.414,2.6a2.787,2.787,0,0,1-3.94.144m-6.526-6.064-.041-.038a2.786,2.786,0,0,1-.144-3.939l2.416-2.6,2.577-2.769a2.785,2.785,0,0,1,3.938-.147l.041.039a2.785,2.785,0,0,1,.146,3.939l-2.576,2.772-2.415,2.6a2.789,2.789,0,0,1-3.941.143M-36.5,14.466l-.041-.039a2.789,2.789,0,0,1-.146-3.941l2.417-2.6L-31.7,5.117a2.788,2.788,0,0,1,3.941-.144l.041.038a2.786,2.786,0,0,1,.144,3.941l-2.574,2.772-2.417,2.6a2.786,2.786,0,0,1-3.939.146m15.4-28.927-21.1,22.7a5.009,5.009,0,0,0,.259,7.082L-4.705,49.932a5.012,5.012,0,0,0,7.082-.261l21.1-22.7a5.012,5.012,0,0,0-.261-7.082L-14.023-14.719a5.012,5.012,0,0,0-7.082.258" transform="translate(1006.617 -541.651)" fill="#fff"/>
    <path id="path280" d="M-.437-3.209-.4-3.17a2.786,2.786,0,0,0,3.939-.146l2.417-2.6L1.834-9.748-.583-7.15A2.789,2.789,0,0,0-.437-3.209" transform="translate(970.514 -524.015)" fill="#06a6b9"/>
    <path id="path284" d="M-1.263-.437-3.836,2.335.29,6.169,2.864,3.4A2.787,2.787,0,0,0,2.72-.543L2.679-.581a2.789,2.789,0,0,0-3.941.144" transform="translate(976.184 -536.098)" fill="#06a6b9"/>
    <path id="path288" d="M-.437-3.209l.041.038a2.788,2.788,0,0,0,3.941-.144l2.416-2.6L1.834-9.748-.58-7.15A2.788,2.788,0,0,0-.437-3.209" transform="translate(983.745 -538.253)" fill="#06a6b9"/>
    <path id="path292" d="M-1.265-.437-3.843,2.334.284,6.167,2.86,3.4A2.789,2.789,0,0,0,2.716-.544L2.672-.583a2.784,2.784,0,0,0-3.937.146" transform="translate(989.421 -550.335)" fill="#06a6b9"/>
    <path id="path296" d="M-.437-3.21l.041.038a2.789,2.789,0,0,0,3.941-.143l2.415-2.6L1.835-9.749l-2.416,2.6A2.786,2.786,0,0,0-.437-3.21" transform="translate(977.036 -517.951)" fill="#06a6b9"/>
    <path id="path300" d="M-1.265-.437-3.841,2.332.284,6.166,2.86,3.4a2.786,2.786,0,0,0-.146-3.94L2.673-.584a2.786,2.786,0,0,0-3.938.147" transform="translate(982.713 -530.032)" fill="#06a6b9"/>
    <path id="path304" d="M-.437-3.21l.042.039a2.786,2.786,0,0,0,3.939-.147l2.417-2.6L1.836-9.749l-2.417,2.6A2.786,2.786,0,0,0-.437-3.21" transform="translate(990.27 -532.19)" fill="#06a6b9"/>
    <path id="path308" d="M-1.263-.436-3.836,2.335.289,6.17,2.864,3.4A2.79,2.79,0,0,0,2.72-.541L2.679-.579a2.791,2.791,0,0,0-3.941.143" transform="translate(995.942 -544.274)" fill="#06a6b9"/>
    <path id="path312" d="M-.436-3.21l.044.037a2.786,2.786,0,0,0,3.94-.143l2.414-2.6L1.837-9.749l-2.416,2.6A2.793,2.793,0,0,0-.436-3.21" transform="translate(983.558 -511.886)" fill="#06a6b9"/>
    <path id="path316" d="M-1.264-.437-3.839,2.336.286,6.168,2.862,3.4A2.786,2.786,0,0,0,2.717-.543L2.678-.582a2.79,2.79,0,0,0-3.941.145" transform="translate(989.234 -523.97)" fill="#06a6b9"/>
    <path id="path320" d="M-.437-3.211l.04.037A2.79,2.79,0,0,0,3.545-3.32l2.416-2.6L1.835-9.752-.58-7.152A2.788,2.788,0,0,0-.437-3.211" transform="translate(996.794 -526.124)" fill="#06a6b9"/>
    <path id="path324" d="M-1.264-.436-3.84,2.336.286,6.171,2.86,3.4A2.785,2.785,0,0,0,2.716-.54L2.674-.579a2.788,2.788,0,0,0-3.938.143" transform="translate(1002.469 -538.211)" fill="#06a6b9"/>
    <path id="path328" d="M-.437-3.21-.4-3.17a2.787,2.787,0,0,0,3.938-.143l2.415-2.6L1.834-9.749-.58-7.15A2.785,2.785,0,0,0-.437-3.21" transform="translate(990.086 -505.824)" fill="#06a6b9"/>
    <path id="path332" d="M-1.264-.437-3.839,2.335.285,6.17,2.862,3.4A2.786,2.786,0,0,0,2.718-.543L2.678-.58a2.79,2.79,0,0,0-3.941.143" transform="translate(995.758 -517.908)" fill="#06a6b9"/>
    <path id="path336" d="M-.436-3.21l.041.037a2.787,2.787,0,0,0,3.941-.143l2.415-2.6L1.835-9.749l-2.415,2.6A2.791,2.791,0,0,0-.436-3.21" transform="translate(1003.318 -520.062)" fill="#06a6b9"/>
    <path id="path340" d="M-1.264-.437-3.84,2.334.286,6.167,2.861,3.4A2.792,2.792,0,0,0,2.718-.545L2.677-.583a2.79,2.79,0,0,0-3.941.146" transform="translate(1008.993 -532.145)" fill="#06a6b9"/>
    <path id="path344" d="M-.436-3.21l.042.038a2.789,2.789,0,0,0,3.941-.143l2.415-2.6L1.835-9.749-.58-7.149A2.788,2.788,0,0,0-.436-3.21" transform="translate(996.609 -499.761)" fill="#06a6b9"/>
    <path id="path348" d="M-1.264-.437-3.84,2.333.286,6.168,2.861,3.4A2.789,2.789,0,0,0,2.717-.545L2.675-.582a2.788,2.788,0,0,0-3.94.145" transform="translate(1002.284 -511.842)" fill="#06a6b9"/>
    <path id="path352" d="M-.437-3.21l.041.038a2.786,2.786,0,0,0,3.939-.146l2.415-2.6L1.833-9.749l-2.416,2.6A2.79,2.79,0,0,0-.437-3.21" transform="translate(1009.844 -513.999)" fill="#06a6b9"/>
    <path id="path356" d="M-1.264-.437-3.839,2.335.286,6.169,2.862,3.4A2.787,2.787,0,0,0,2.72-.543L2.678-.58a2.787,2.787,0,0,0-3.941.143" transform="translate(1015.515 -526.083)" fill="#06a6b9"/>
    <path id="path360" d="M-.436-3.209l.043.039a2.786,2.786,0,0,0,3.939-.143l2.415-2.6L1.835-9.748-.58-7.148A2.788,2.788,0,0,0-.436-3.209" transform="translate(1003.133 -493.699)" fill="#06a6b9"/>
    <path id="path364" d="M-1.264-.437-3.84,2.332.285,6.169,2.861,3.4A2.786,2.786,0,0,0,2.716-.544L2.675-.583a2.786,2.786,0,0,0-3.939.146" transform="translate(1008.808 -505.779)" fill="#06a6b9"/>
    <path id="path368" d="M-.437-3.209-.4-3.17a2.792,2.792,0,0,0,3.941-.143l2.415-2.6L1.834-9.748-.58-7.148A2.786,2.786,0,0,0-.437-3.209" transform="translate(1016.367 -507.937)" fill="#06a6b9"/>
    <path id="path372" d="M-1.265-.436-3.841,2.336.285,6.17,2.861,3.4A2.787,2.787,0,0,0,2.715-.543L2.674-.579a2.788,2.788,0,0,0-3.939.143" transform="translate(1022.042 -520.021)" fill="#06a6b9"/>
  </g>
</svg>
