<svg xmlns="http://www.w3.org/2000/svg" width="68.029" height="53.13" viewBox="0 0 68.029 53.13">
  <g id="Group_81" data-name="Group 81" transform="translate(-519.891 725.332)">
    <path id="path86" d="M-23.09-36.718A12.28,12.28,0,0,1-35.358-48.985,12.281,12.281,0,0,1-23.09-61.252,12.281,12.281,0,0,1-10.824-48.985,12.28,12.28,0,0,1-23.09-36.718M-3.324-42.3A20.6,20.6,0,0,0-2.3-47.2L-5.687-48.84c0-.548-.016-1.1-.065-1.656-.014-.192-.04-.38-.061-.571l3.182-2.011a20.624,20.624,0,0,0-1.556-4.757l-3.758.272a17.181,17.181,0,0,0-1.222-1.869l1.749-3.326A21.055,21.055,0,0,0-11.15-66.1l-3.116,2.112A17.71,17.71,0,0,0-16.256-65l-.148-3.755a20.771,20.771,0,0,0-4.9-1.025l-1.639,3.386c-.548-.005-1.1.016-1.655.064-.193.016-.382.041-.571.064l-2.008-3.186a20.913,20.913,0,0,0-4.761,1.558l.274,3.758a16.869,16.869,0,0,0-1.867,1.224l-3.33-1.75A20.813,20.813,0,0,0-40.2-60.923l2.114,3.114A17.189,17.189,0,0,0-39.1-55.821l-3.757.147a20.677,20.677,0,0,0-1.021,4.906l3.385,1.639c0,.548.014,1.1.062,1.656.017.191.041.379.066.57l-3.186,2.009a20.878,20.878,0,0,0,1.558,4.758l3.757-.272a17.354,17.354,0,0,0,1.222,1.868l-1.75,3.326a20.845,20.845,0,0,0,3.734,3.34l3.114-2.112a17.06,17.06,0,0,0,1.99,1.012l.148,3.757a20.719,20.719,0,0,0,4.9,1.021l1.643-3.385c.546,0,1.1-.015,1.656-.063.191-.016.38-.042.567-.066L-19-28.522a20.917,20.917,0,0,0,4.762-1.557l-.272-3.759a18.42,18.42,0,0,0,1.867-1.222l3.328,1.749A21.019,21.019,0,0,0-5.98-37.045l-2.11-3.114A18.57,18.57,0,0,0-7.079-42.15Z" transform="translate(563.77 -655.556)" fill="#fff"/>
    <path id="path90" d="M-22.173-11.821A8.6,8.6,0,0,1-30-2.5a8.608,8.608,0,0,1-9.322-7.825,8.608,8.608,0,0,1,7.827-9.32,8.6,8.6,0,0,1,9.32,7.823m-19.962.749A11.4,11.4,0,0,0-30.744.319a11.4,11.4,0,0,0,11.389-11.39A11.4,11.4,0,0,0-30.744-22.463,11.4,11.4,0,0,0-42.135-11.071" transform="translate(571.424 -693.469)" fill="#fff"/>
    <path id="path94" d="M-16.556-7.3A5.958,5.958,0,0,1-18.65.864a5.958,5.958,0,0,1-8.221-2.2,6.028,6.028,0,0,1,2.053-7.99A5.958,5.958,0,0,1-16.556-7.3m-14.9,2.99A9.774,9.774,0,0,0-21.9,5.659,9.773,9.773,0,0,0-11.938-3.9a9.773,9.773,0,0,0-9.557-9.966A9.773,9.773,0,0,0-31.46-4.306" transform="translate(593.854 -683.865)" fill="#fff"/>
    <path id="path98" d="M-17.271-28.819a10.2,10.2,0,0,1-9.969-10.4,10.194,10.194,0,0,1,10.4-9.969,10.2,10.2,0,0,1,9.971,10.4,10.2,10.2,0,0,1-10.4,9.969m15.9-8.636A15.968,15.968,0,0,0-1.4-40.88l-2.656-.635a14.186,14.186,0,0,0-.586-2.071l1.946-1.92a15.393,15.393,0,0,0-.793-1.524,15.56,15.56,0,0,0-.951-1.424l-2.621.783A13.159,13.159,0,0,0-8.6-49.18l.725-2.634a15.921,15.921,0,0,0-2.985-1.68l-1.881,1.99a13.358,13.358,0,0,0-2.079-.536l-.7-2.651a15.7,15.7,0,0,0-3.418.042l-.641,2.655a13.145,13.145,0,0,0-2.066.584l-1.922-1.944a14.961,14.961,0,0,0-1.523.789,16.033,16.033,0,0,0-1.424.949l.78,2.625a13.494,13.494,0,0,0-1.507,1.536l-2.634-.723a15.8,15.8,0,0,0-1.68,2.98l1.988,1.883a13.626,13.626,0,0,0-.533,2.08l-2.647.695a15.783,15.783,0,0,0,.036,3.422l2.659.633a13.834,13.834,0,0,0,.579,2.074l-1.944,1.92a14.881,14.881,0,0,0,.79,1.519,15.782,15.782,0,0,0,.951,1.428l2.624-.781a13.535,13.535,0,0,0,1.535,1.506l-.721,2.637a15.677,15.677,0,0,0,2.977,1.677l1.886-1.987a12.785,12.785,0,0,0,2.08.533l.693,2.651a16.069,16.069,0,0,0,3.422-.037l.632-2.659a13.118,13.118,0,0,0,2.071-.583l1.929,1.946a15.076,15.076,0,0,0,1.517-.789A15.358,15.358,0,0,0-7.6-26.387l-.78-2.62a13.5,13.5,0,0,0,1.507-1.536l2.635.723A15.589,15.589,0,0,0-2.565-32.8l-1.988-1.886a13.285,13.285,0,0,0,.536-2.076Z" transform="translate(589.213 -648.964)" fill="#fff"/>
    <path id="path102" d="M-26.276-13.625A11.4,11.4,0,0,1-37.666-2.235a11.4,11.4,0,0,1-11.391-11.39A11.4,11.4,0,0,1-37.666-25.016,11.4,11.4,0,0,1-26.276-13.625m-23.657,0A12.28,12.28,0,0,0-37.666-1.358,12.28,12.28,0,0,0-25.4-13.625,12.28,12.28,0,0,0-37.666-25.892,12.28,12.28,0,0,0-49.933-13.625" transform="translate(578.345 -690.916)" fill="#c959a3"/>
    <path id="path106" d="M-22.154-11.541a9.773,9.773,0,0,1-9.965,9.556,9.774,9.774,0,0,1-9.557-9.965,9.773,9.773,0,0,1,9.965-9.556,9.772,9.772,0,0,1,9.557,9.966M-42.1-11.96a10.2,10.2,0,0,0,9.969,10.4,10.2,10.2,0,0,0,10.4-9.969,10.2,10.2,0,0,0-9.971-10.4A10.194,10.194,0,0,0-42.1-11.96" transform="translate(604.071 -676.22)" fill="#c959a3"/>
  </g>
</svg>
