<svg id="lab_1_" xmlns="http://www.w3.org/2000/svg" width="38.458" height="38.457" viewBox="0 0 38.458 38.457">
  <path id="Path_37" data-name="Path 37" d="M24.856,3.88a3.007,3.007,0,0,0-4.252,0l-1.695,1.7a3.008,3.008,0,0,0-.436,3.7L2.156,15.818a3.605,3.605,0,0,0-1.091,5.86L16.352,36.8a3.584,3.584,0,0,0,2.458,1.054H18.9a3.711,3.711,0,0,0,.733-.075,3.588,3.588,0,0,0,2.616-2.2l6.42-16.075a3,3,0,0,0,3.768-.392l1.691-1.692a3,3,0,0,0,.007-4.256ZM20.021,34.688a1.2,1.2,0,0,1-.874.735,1.255,1.255,0,0,1-.275.025,1.194,1.194,0,0,1-.82-.351L2.756,19.969a1.2,1.2,0,0,1,.369-1.951L10.6,15.026c5.034,1.674,10.07.061,15.106,5.434ZM32.439,15.715l-1.7,1.7a.6.6,0,0,1-.85,0L27.765,15.29,26.044,19.6l.143-.364c-3.617-3.611-7.294-4.067-10.611-4.474-1.066-.131-2.1-.268-3.115-.487l10.2-4.087L20.6,8.129a.6.6,0,0,1,0-.85l1.7-1.7a.6.6,0,0,1,.85,0l9.284,9.286A.6.6,0,0,1,32.439,15.715Z" transform="translate(0.001 0.605)" fill="#fff"/>
  <path id="Path_38" data-name="Path 38" d="M17,22.009a3,3,0,1,0-3-3A3.008,3.008,0,0,0,17,22.009ZM17,17.2A1.8,1.8,0,1,1,15.2,19,1.8,1.8,0,0,1,17,17.2Z" transform="translate(2.826 3.229)" fill="#fff"/>
  <path id="Path_39" data-name="Path 39" d="M30,0a3,3,0,1,0,3,3A3.007,3.007,0,0,0,30,0Zm0,4.807a1.8,1.8,0,1,1,1.8-1.8A1.8,1.8,0,0,1,30,4.807Z" transform="translate(5.449)" fill="#fff"/>
  <path id="Path_40" data-name="Path 40" d="M8,17.4A2.4,2.4,0,1,0,10.4,15,2.406,2.406,0,0,0,8,17.4Zm2.4-1.2a1.2,1.2,0,1,1-1.2,1.2A1.2,1.2,0,0,1,10.4,16.2Z" transform="translate(1.615 3.027)" fill="#fff"/>
  <ellipse id="Ellipse_17" data-name="Ellipse 17" cx="0.889" cy="1.334" rx="0.889" ry="1.334" transform="translate(14.781 26.344)" fill="#fff"/>
  <circle id="Ellipse_18" data-name="Ellipse 18" cx="1.334" cy="1.334" r="1.334" transform="translate(33.458 8.556)" fill="#fff"/>
</svg>
