<svg xmlns="http://www.w3.org/2000/svg" width="27.391" height="32.928" viewBox="0 0 27.391 32.928">
  <g id="_6705023_drink_drop_drops_ecology_water_icon" data-name="6705023_drink_drop_drops_ecology_water_icon" transform="translate(-29.272 -26.9)">
    <path id="Path_41" data-name="Path 41" d="M40.222,59.828a10.789,10.789,0,0,1-9.408-5.366,10.964,10.964,0,0,1-.2-10.865L39.361,27.43a1.034,1.034,0,0,1,.861-.53.955.955,0,0,1,.861.53L49.829,43.6a10.964,10.964,0,0,1-.2,10.865A10.789,10.789,0,0,1,40.222,59.828Zm0-29.814L32.338,44.589a8.86,8.86,0,0,0,.2,8.878,8.979,8.979,0,0,0,7.752,4.373,8.733,8.733,0,0,0,7.685-4.373,8.863,8.863,0,0,0,.2-8.878Z" transform="translate(0 0)" fill="#fff"/>
    <path id="Path_42" data-name="Path 42" d="M57.971,47.548a.994.994,0,0,1,0-1.988,4.366,4.366,0,0,0,3.843-2.186,4.43,4.43,0,0,0,.066-4.439L57.9,31.648l-3.843,7.089a.978.978,0,1,1-1.723-.928l4.7-8.679a1.034,1.034,0,0,1,.861-.53.955.955,0,0,1,.861.53L63.6,38.008a6.372,6.372,0,0,1-.133,6.427A6.236,6.236,0,0,1,57.971,47.548Z" transform="translate(-7.744 -0.574)" fill="#fff"/>
    <path id="Path_43" data-name="Path 43" d="M39.726,62.613a.363.363,0,0,1-.4-.265A4.665,4.665,0,0,1,38.6,59.83a.523.523,0,0,1,.53-.53.488.488,0,0,1,.53.53,4.047,4.047,0,0,0,.53,1.988.5.5,0,0,1-.133.663C39.925,62.546,39.859,62.613,39.726,62.613Z" transform="translate(-3.148 -10.934)" fill="#fff"/>
    <path id="Path_44" data-name="Path 44" d="M44.651,66.751h0a2.382,2.382,0,0,1-.729-.133.482.482,0,0,1,.265-.928,1.459,1.459,0,0,0,.53.066.512.512,0,0,1,.464.53A.562.562,0,0,1,44.651,66.751Z" transform="translate(-4.827 -13.085)" fill="#fff"/>
    <path id="Path_45" data-name="Path 45" d="M63.3,42.8a.558.558,0,0,1-.464-.265l-.265-.6a.5.5,0,0,1,.928-.4l.265.6a.484.484,0,0,1-.265.663Z" transform="translate(-11.221 -4.833)" fill="#fff"/>
    <path id="Path_46" data-name="Path 46" d="M61.635,39.462a.558.558,0,0,1-.464-.265l-.4-.861a.5.5,0,0,1,.928-.4l.4.861a.484.484,0,0,1-.265.663C61.834,39.4,61.7,39.462,61.635,39.462Z" transform="translate(-10.613 -3.618)" fill="#fff"/>
  </g>
</svg>
