<svg xmlns="http://www.w3.org/2000/svg" width="34.923" height="34.923" viewBox="0 0 34.923 34.923">
  <g id="_6051122_drop_pool_water_icon" data-name="6051122_drop_pool_water_icon" transform="translate(-3 -3)">
    <path id="Path_47" data-name="Path 47" d="M24.291,39.1c-2.584,0-8.591.21-8.591,2.1s6.007,2.1,8.591,2.1,8.591-.21,8.591-2.1S26.875,39.1,24.291,39.1Zm0,2.864a26.839,26.839,0,0,1-6.775-.7,23.8,23.8,0,0,1,6.775-.7,26.839,26.839,0,0,1,6.775.7A23.8,23.8,0,0,1,24.291,41.964Z" transform="translate(-3.829 -10.885)" fill="#fff"/>
    <path id="Path_48" data-name="Path 48" d="M20.462,31.4C10.683,31.4,3,34.683,3,38.943s7.683,7.543,17.462,7.543S37.923,43.2,37.923,38.943,30.24,31.4,20.462,31.4Zm0,13.69C10.823,45.09,4.4,41.877,4.4,38.943S10.823,32.8,20.462,32.8s16.065,3.213,16.065,6.147S30.1,45.09,20.462,45.09Z" transform="translate(0 -8.564)" fill="#fff"/>
    <path id="Path_49" data-name="Path 49" d="M22.391,35.3C16.105,35.3,9.4,36.976,9.4,40.119s6.705,4.819,12.991,4.819,12.991-1.676,12.991-4.819S28.678,35.3,22.391,35.3Zm0,8.242c-7.194,0-11.595-2.026-11.595-3.422,0-1.467,4.4-3.422,11.595-3.422s11.595,2.026,11.595,3.422S29.586,43.542,22.391,43.542Z" transform="translate(-1.93 -9.74)" fill="#fff"/>
    <path id="Path_50" data-name="Path 50" d="M26.356,20.671a6.365,6.365,0,0,0,6.356-6.286c0-3.213-5.169-10.267-5.8-11.036A.575.575,0,0,0,26.356,3h0a.635.635,0,0,0-.559.279C25.169,4.048,20,11.1,20,14.315A6.379,6.379,0,0,0,26.356,20.671Zm0-15.785c1.746,2.445,4.959,7.334,4.959,9.429a4.924,4.924,0,0,1-9.848,0C21.4,12.22,24.61,7.33,26.356,4.886Z" transform="translate(-5.126 0)" fill="#fff"/>
    <path id="Path_51" data-name="Path 51" d="M27.893,21.792a.7.7,0,0,0,0-1.4A1.4,1.4,0,0,1,26.5,19a.7.7,0,0,0-1.4,0A2.757,2.757,0,0,0,27.893,21.792Z" transform="translate(-6.663 -4.613)" fill="#fff"/>
  </g>
</svg>
