<svg xmlns="http://www.w3.org/2000/svg" width="17.965" height="22.628" viewBox="0 0 17.965 22.628">
  <g id="laboratory" transform="translate(0)">
    <path id="Path_65" data-name="Path 65" d="M210.33-511.806a.661.661,0,0,0,0,1.172,1.033,1.033,0,0,0,.46.08h.305l-.031,6.23-.031,6.226.248.031a4.057,4.057,0,0,1,.752.226,3.6,3.6,0,0,0,.593.2,2.439,2.439,0,0,0,.478-.159,2.116,2.116,0,0,1,2.1,0,2.433,2.433,0,0,0,.473.155,3.951,3.951,0,0,0,.61-.208,1.779,1.779,0,0,1,.937-.208,1.779,1.779,0,0,1,.937.208,3.794,3.794,0,0,0,.61.208,2.184,2.184,0,0,0,.451-.15,2.307,2.307,0,0,1,1.26-.274l.367.027-.027-.119a8.028,8.028,0,0,0-.84-2.1A7.69,7.69,0,0,0,216.9-503.1a3.5,3.5,0,0,0-.464-.2c-.031,0-.044-1.229-.044-3.622v-3.622l.327-.018a.781.781,0,0,0,.455-.106.67.67,0,0,0,0-1.1c-.124-.093-.15-.093-3.4-.106C210.71-511.881,210.476-511.877,210.33-511.806Zm5.174,11.245a.7.7,0,0,1,.354.579.717.717,0,0,1-.668.659.749.749,0,0,1-.575-.363.632.632,0,0,1,.252-.858A.6.6,0,0,1,215.5-500.561Z" transform="translate(-203.027 511.876)" fill="#fff"/>
    <path id="Path_66" data-name="Path 66" d="M53.264-395.881a.67.67,0,0,0-.133,1.154l.133.1v3.7h6.279v-3.692l.133-.075a.665.665,0,0,0-.044-1.15c-.142-.075-.385-.08-3.206-.075C54.524-395.926,53.335-395.908,53.264-395.881Z" transform="translate(-52.86 401.054)" fill="#fff"/>
    <path id="Path_67" data-name="Path 67" d="M61.809-252.4v.6h.765c.836,0,.968.031,1.159.283a.825.825,0,0,1,0,.761c-.19.252-.323.283-1.159.283h-.765v1.327h.765c.659,0,.783.013.915.084a.559.559,0,0,1,.332.579.559.559,0,0,1-.332.579c-.133.071-.256.084-.915.084h-.765v1.327h.765c.836,0,.968.031,1.159.283a.825.825,0,0,1,0,.761c-.19.252-.323.283-1.163.283H61.8l.031.34a3.087,3.087,0,0,0,1.035,2.189,3.194,3.194,0,0,0,1.243.708,3.452,3.452,0,0,0,1.725,0,3.208,3.208,0,0,0,2.1-1.994l.137-.38.013-4.347L68.088-253H61.809Z" transform="translate(-61.404 264.447)" fill="#fff"/>
    <path id="Path_68" data-name="Path 68" d="M220.785-167.4l-.013,2.6-.124.389a5.965,5.965,0,0,1-.287.73l-.177.371c-.018.044.279.19.738.363a7.312,7.312,0,0,0,4.387.23,7.345,7.345,0,0,0,4.727-3.9,6.5,6.5,0,0,0,.553-1.587,5.313,5.313,0,0,0,.133-1.618,2.083,2.083,0,0,0-.65-.177,2.2,2.2,0,0,0-.508.159,2.116,2.116,0,0,1-2.1,0,2.433,2.433,0,0,0-.473-.155,3.949,3.949,0,0,0-.61.208,1.779,1.779,0,0,1-.937.208,1.822,1.822,0,0,1-.937-.208,3.8,3.8,0,0,0-.606-.208,2.191,2.191,0,0,0-.455.15,2.125,2.125,0,0,1-2.127,0,2.958,2.958,0,0,0-.447-.155A11.214,11.214,0,0,0,220.785-167.4Zm2.529-1.132a.757.757,0,0,1,.354.553.757.757,0,0,1-.349.584.585.585,0,0,1-.632,0,.638.638,0,0,1-.018-1.119A.59.59,0,0,1,223.314-168.536Zm2.432,1.327a.757.757,0,0,1,.354.553.756.756,0,0,1-.349.584.585.585,0,0,1-.632,0,.64.64,0,0,1-.009-1.123A.584.584,0,0,1,225.747-167.21Z" transform="translate(-212.784 185.118)" fill="#fff"/>
  </g>
</svg>
