<svg xmlns="http://www.w3.org/2000/svg" width="19.81" height="19.801" viewBox="0 0 19.81 19.801">
  <g id="envelope" transform="translate(0)">
    <path id="Path_58" data-name="Path 58" d="M96.407-479.712a.963.963,0,0,0-.265.225l-.119.155-.013,4.188L96-470.961l3.507,1.888c1.932,1.039,3.538,1.888,3.573,1.888s1.636-.849,3.564-1.888l3.507-1.888v-4.126c0-4.568.018-4.316-.292-4.55l-.164-.128-6.571-.009C97.105-479.783,96.539-479.778,96.407-479.712Zm9.879,2.162a.624.624,0,0,1,.305.593.624.624,0,0,1-.305.593c-.119.093-.172.093-3.113.106-2.021.009-3.047,0-3.157-.035a.71.71,0,0,1-.314-1.11c.226-.27.111-.261,3.427-.248C106.117-477.642,106.166-477.642,106.285-477.549Zm0,2.83a.624.624,0,0,1,.305.593.624.624,0,0,1-.305.593c-.119.093-.172.093-3.113.106-2.021.009-3.047,0-3.157-.035a.71.71,0,0,1-.314-1.11c.226-.27.111-.261,3.427-.248C106.117-474.812,106.166-474.812,106.285-474.719Zm0,2.83a.624.624,0,0,1,.305.593.624.624,0,0,1-.305.593c-.119.093-.172.093-3.113.106-2.021.009-3.047,0-3.157-.035a.71.71,0,0,1-.314-1.11c.226-.27.111-.261,3.427-.248C106.117-471.982,106.166-471.982,106.285-471.889Z" transform="translate(-93.17 479.777)" fill="#fff"/>
    <path id="Path_59" data-name="Path 59" d="M35.437-355.609a2.842,2.842,0,0,0-1.017.721,2.365,2.365,0,0,0-.42.8,1.867,1.867,0,0,0,.566.363c.31.164.765.411,1.017.544l.451.243v-1.481c0-.814-.013-1.481-.031-1.477S35.729-355.768,35.437-355.609Z" transform="translate(-33.912 361.378)" fill="#fff"/>
    <path id="Path_60" data-name="Path 60" d="M432-354.519v1.486l.5-.27c.27-.146.73-.389,1.013-.544.336-.177.522-.3.522-.345a1.865,1.865,0,0,0-.155-.385,2.633,2.633,0,0,0-1.273-1.128c-.305-.164-.57-.3-.584-.3S432-355.332,432-354.519Z" transform="translate(-414.312 361.473)" fill="#fff"/>
    <path id="Path_61" data-name="Path 61" d="M32-273.817c0,2.419.018,4.174.04,4.165.115-.044,6.717-4.7,6.7-4.727s-.354-.208-.761-.429-1.915-1.026-3.343-1.8-2.609-1.4-2.622-1.4S32-276.116,32-273.817Z" transform="translate(-32 286.922)" fill="#fff"/>
    <path id="Path_62" data-name="Path 62" d="M334.022-277.343c-.557.3-2.034,1.1-3.281,1.764s-2.295,1.243-2.335,1.269c-.057.049.429.4,3.277,2.4,1.84,1.291,3.361,2.348,3.383,2.357s.04-1.747.04-4.165c0-2.3-.013-4.183-.031-4.179S334.584-277.648,334.022-277.343Z" transform="translate(-315.296 286.827)" fill="#fff"/>
    <path id="Path_63" data-name="Path 63" d="M43.918-176.254C41.764-174.742,40-173.49,40-173.464a2.456,2.456,0,0,0,.747.694c.544.287-.035.27,8.8.27s8.26.018,8.8-.27a2.46,2.46,0,0,0,.747-.7c0-.053-7.774-5.505-7.844-5.5a8.439,8.439,0,0,0-.756.394c-.646.358-.73.389-.951.389s-.3-.027-.708-.256c-.256-.142-.588-.327-.734-.407l-.274-.15Z" transform="translate(-39.646 192.3)" fill="#fff"/>
  </g>
</svg>
