<svg id="phone-call-_1_" xmlns="http://www.w3.org/2000/svg" width="22.63" height="22.615" viewBox="0 0 22.63 22.615">
  <path id="Path_69" data-name="Path 69" d="M238.7-511.76a.873.873,0,0,0-.433.566.821.821,0,0,0,.442.831,3.465,3.465,0,0,0,.685.088,9.639,9.639,0,0,1,3.913.991,9.665,9.665,0,0,1,4.493,4.493,9.639,9.639,0,0,1,.99,3.913c.035.619.08.769.283.942a.769.769,0,0,0,1.207-.27c.084-.186.088-.261.062-.8a11.969,11.969,0,0,0-.672-3.4,15.423,15.423,0,0,0-1.017-2.083,11.99,11.99,0,0,0-3.4-3.484,13.7,13.7,0,0,0-2.388-1.2,11.543,11.543,0,0,0-3.356-.65C238.956-511.848,238.872-511.84,238.7-511.76Z" transform="translate(-227.731 511.837)" fill="#fff"/>
  <path id="Path_70" data-name="Path 70" d="M2.834-509.895c-1.291.61-2.388,1.15-2.445,1.2a.915.915,0,0,0-.172.287c-.066.172-.071.243-.022.646a20.4,20.4,0,0,0,1.857,6.244,24.881,24.881,0,0,0,7.5,8.959,21.079,21.079,0,0,0,9.671,4.068c.778.111.946.093,1.185-.128A22.18,22.18,0,0,0,21.65-491.1c1.11-2.361,1.11-2.361,1.092-2.618a.584.584,0,0,0-.15-.411c-.106-.128-2.012-1.384-4.342-2.861a.99.99,0,0,0-.792-.19c-.146.027-.31.172-1.185,1.039a11.459,11.459,0,0,1-1.15,1.061,3.242,3.242,0,0,1-1.755-.265,9.541,9.541,0,0,1-3.8-2.428,9.425,9.425,0,0,1-1.406-1.676,8.606,8.606,0,0,1-1.344-3.259c-.1-.641-.128-.6,1.052-1.791.884-.893,1.035-1.061,1.061-1.207.071-.38.057-.411-1.442-2.742-.783-1.22-1.468-2.268-1.517-2.326A.769.769,0,0,0,5.386-511,12.893,12.893,0,0,0,2.834-509.895Z" transform="translate(-0.162 511.037)" fill="#fff"/>
  <path id="Path_71" data-name="Path 71" d="M239.138-423.8a.762.762,0,0,0-.279,1.269,1,1,0,0,0,.8.261,5.984,5.984,0,0,1,2.308.579,6.016,6.016,0,0,1,2.684,2.684,5.984,5.984,0,0,1,.579,2.308,1,1,0,0,0,.261.8.751.751,0,0,0,1.128-.035,1.082,1.082,0,0,0,.186-.862,7.318,7.318,0,0,0-1.26-3.754,7.412,7.412,0,0,0-5.483-3.268A2,2,0,0,0,239.138-423.8Z" transform="translate(-228.082 427.746)" fill="#fff"/>
</svg>
