<svg xmlns="http://www.w3.org/2000/svg" width="22.64" height="20.753" viewBox="0 0 22.64 20.753">
  <path id="Path_64" data-name="Path 64" d="M1.605-490.789a1.936,1.936,0,0,0-1.561,1.5C.018-489.135,0-486.681,0-482.3c0,5.664.013,6.792.062,7.013a1.9,1.9,0,0,0,1.256,1.353c.23.08.42.084,3.71.084H8.49v.124c0,.066-.022.292-.049.5a3.606,3.606,0,0,1-.575,1.817.952.952,0,0,1-.716.4c-.363.057-.531.212-.531.482a.364.364,0,0,0,.142.323l.137.142h8.844l.137-.142a.364.364,0,0,0,.142-.323c0-.27-.168-.424-.531-.482a.952.952,0,0,1-.716-.4,3.658,3.658,0,0,1-.579-1.84c-.022-.221-.044-.442-.044-.5v-.1h3.462c3.29,0,3.48,0,3.71-.084a1.9,1.9,0,0,0,1.256-1.353c.049-.221.062-1.349.062-7.013,0-4.378-.018-6.832-.044-6.987a1.912,1.912,0,0,0-1.6-1.5C20.659-490.837,1.937-490.837,1.605-490.789Zm19.134,7.517v5.66H1.9v-11.32H20.739Zm-8.976,6.721a.944.944,0,0,1-.1,1.7.932.932,0,0,1-1.274-.871A.925.925,0,0,1,11.762-476.55Z" transform="translate(0 490.825)" fill="#fff"/>
</svg>
