<svg xmlns="http://www.w3.org/2000/svg" width="145.459" height="35.993" viewBox="0 0 145.459 35.993">
  <g id="logo" transform="translate(-665.804 248.506)">
    <path id="path608" d="M-35.883-77.967l-3.291.01-10.1-17.854.035,17.854H-52.3v-35.676h3.06l-.035,17.822,9.126-17.827,3.251.015-9.05,17.782Z" transform="translate(829.608 -134.672)" fill="#00a3b7"/>
    <path id="path612" d="M-35.883-77.967l-3.291.01-10.1-17.854.035,17.854H-52.3v-35.676h3.059l-.035,17.822,9.126-17.827,3.251.015-9.05,17.782Z" transform="translate(718.104 -134.672)" fill="#00a3b7"/>
    <path id="path616" d="M-43.779-78.512h-3.074V-111.53l-5.9,33.017h-2.281l-5.9-33.017v33.017h-2.876v-35.845l5.366-.076,3.758,21.162q.2,1.191.846,7.09Q-53.4-91.09-53-93.37l3.763-21.064,5.453.076Z" transform="translate(771.313 -134)" fill="#00a3b7"/>
    <path id="path620" d="M-26.546-49.2l-3.3-19.372L-33.436-49.2Zm5.453,13.336h-3.124l-1.834-10.56h-7.782l-1.835,10.56h-3.024l6.445-35.844h4.559Z" transform="translate(771.927 -176.651)" fill="#00a3b7"/>
    <path id="path624" d="M-25.033-20.263q0-3.668-1.338-5.131t-4.711-1.462h-2.33v13.139q1.288.1,1.785.1,3.521,0,5.057-1.561t1.538-5.082m3.719,26.574h-3.124l-5.255-17.352c-.4.033-1.01.049-1.835.049s-1.455-.016-1.884-.049V6.311h-3.074V-29.533h3.966q5.7,0,8.18,1.983t2.479,7.089q0,6.943-4.908,8.825Z" transform="translate(793.096 -218.824)" fill="#00a3b7"/>
    <path id="path628" d="M0-16.961H0a7.625,7.625,0,0,1,7.56-7.76,7.628,7.628,0,0,1,3.822,1.04,7.509,7.509,0,0,1,3.827,6.548,7.68,7.68,0,0,1-3.928,6.67C7.5-8.272.013-3.938.013-3.938S0-15.131,0-16.961" transform="translate(685.22 -223.785)" fill="#c5579f"/>
    <path id="path632" d="M-33.048,0c-3.537,2.075-7.069,4.191-11.238,6.637a7.509,7.509,0,0,0-.049,13.124,7.509,7.509,0,0,0,11.26-6.74C-33.1,8.187-32.95,4.005-33.048,0" transform="translate(733.318 -233.624)" fill="#00a3b7"/>
    <path id="path636" d="M-33.242-28.466h0a7.624,7.624,0,0,1-7.56,7.76,7.606,7.606,0,0,1-3.821-1.04,7.508,7.508,0,0,1-3.827-6.548,7.679,7.679,0,0,1,3.928-6.67c3.776-2.191,11.269-6.526,11.269-6.526s.012,11.194.012,13.023" transform="translate(844.435 -192.077)" fill="#c5579f"/>
    <path id="path640" d="M-.074-45.414C3.463-47.489,7-49.6,11.163-52.052a7.51,7.51,0,0,0,.048-13.124A7.51,7.51,0,0,0-.049-58.434c.023,4.833-.123,9.015-.026,13.02" transform="translate(796.218 -182.251)" fill="#00a3b7"/>
  </g>
</svg>
