<svg xmlns="http://www.w3.org/2000/svg" width="205.016" height="50.731" viewBox="0 0 205.016 50.731">
  <g id="logo" transform="translate(-665.804 248.506)">
    <path id="path608" d="M-29.161-63.362l-4.638.015L-48.037-88.512l.05,25.164H-52.3V-113.63h4.313l-.05,25.118,12.863-25.127,4.582.021L-43.348-88.555Z" transform="translate(875.262 -134.592)" fill="#fff"/>
    <path id="path612" d="M-29.161-63.362l-4.638.015L-48.037-88.512l.049,25.164H-52.3V-113.63h4.312l-.049,25.118,12.863-25.127,4.582.021L-43.348-88.555Z" transform="translate(718.104 -134.592)" fill="#fff"/>
    <path id="path616" d="M-35.578-63.805h-4.333v-46.536l-8.315,46.536h-3.215l-8.315-46.536v46.536h-4.053v-50.521l7.562-.107,5.3,29.826q.281,1.679,1.192,9.993.627-6.919,1.19-10.132l5.3-29.688,7.685.107Z" transform="translate(788.387 -133.97)" fill="#fff"/>
    <path id="path620" d="M-21.574-39.982l-4.653-27.3-5.058,27.3Zm7.686,18.8h-4.4l-2.585-14.883H-31.843l-2.586,14.883h-4.263l9.083-50.521h6.426Z" transform="translate(799.536 -176.59)" fill="#fff"/>
    <path id="path624" d="M-20.344-16.467q0-5.17-1.886-7.232t-6.64-2.061h-3.285V-7.242q1.816.14,2.516.139,4.962,0,7.127-2.2t2.167-7.163M-15.1,20.987h-4.4L-26.913-3.469c-.56.047-1.424.07-2.587.07s-2.05-.022-2.655-.07V20.987h-4.332V-29.533h5.59q8.034,0,11.53,2.8t3.495,9.992q0,9.785-6.917,12.438Z" transform="translate(830.275 -218.763)" fill="#fff"/>
    <path id="path628" d="M0-13.784H0A10.747,10.747,0,0,1,10.656-24.721a10.751,10.751,0,0,1,5.386,1.465,10.583,10.583,0,0,1,5.393,9.229,10.824,10.824,0,0,1-5.536,9.4C10.577-1.537.018,4.572.018,4.572S0-11.2,0-13.784" transform="translate(693.17 -223.785)" fill="#fff"/>
    <path id="path632" d="M-26.857,0C-31.842,2.925-36.821,5.907-42.7,9.355a10.584,10.584,0,0,0-.068,18.5,10.584,10.584,0,0,0,15.871-9.5c-.032-6.813.175-12.706.037-18.352" transform="translate(741.24 -227.53)" fill="#fff"/>
    <path id="path636" d="M-27.015-23.133h0A10.746,10.746,0,0,1-37.671-12.2a10.721,10.721,0,0,1-5.385-1.465,10.582,10.582,0,0,1-5.395-9.228,10.823,10.823,0,0,1,5.536-9.4c5.323-3.089,15.882-9.2,15.882-9.2s.017,15.777.017,18.356" transform="translate(897.736 -185.96)" fill="#fff"/>
    <path id="path640" d="M-.06-36.907c4.985-2.925,9.964-5.906,15.839-9.355a10.584,10.584,0,0,0,.068-18.5,10.585,10.585,0,0,0-15.871,9.5C.009-48.446-.2-42.552-.06-36.907" transform="translate(849.57 -182.225)" fill="#fff"/>
  </g>
</svg>
